<svg xmlns:xlink="http://www.w3.org/1999/xlink" xmlns="http://www.w3.org/2000/svg" class="plot-6411532a85ed7" fill="currentColor" font-family="system-ui, sans-serif" font-size="10" text-anchor="middle" width="800" height="400" viewBox="0 0 800 400"><style fill="#212529">
        .plot-6411532a85ed7 {
          display: block;
          background: white;
          height: auto;
          height: intrinsic;
          max-width: 100%;
        }
        .plot-6411532a85ed7 text,
        .plot-6411532a85ed7 tspan {
          white-space: pre;
        }
      </style><g aria-label="y-axis" aria-description="↑ Score" transform="translate(40,0)" fill="none" text-anchor="end" font-variant="tabular-nums"><g class="tick" opacity="1" transform="translate(0,365)" fill="none"><line stroke="#212529" x2="-6" fill="none"></line><line stroke="#212529" x2="740" stroke-opacity="0.1" fill="none"></line><text fill="#212529" x="-9" dy="0.32em">0.0</text></g><g class="tick" opacity="1" transform="translate(0,331)" fill="none"><line stroke="#212529" x2="-6" fill="none"></line><line stroke="#212529" x2="740" stroke-opacity="0.1" fill="none"></line><text fill="#212529" x="-9" dy="0.32em">0.2</text></g><g class="tick" opacity="1" transform="translate(0,297)" fill="none"><line stroke="#212529" x2="-6" fill="none"></line><line stroke="#212529" x2="740" stroke-opacity="0.1" fill="none"></line><text fill="#212529" x="-9" dy="0.32em">0.4</text></g><g class="tick" opacity="1" transform="translate(0,263)" fill="none"><line stroke="#212529" x2="-6" fill="none"></line><line stroke="#212529" x2="740" stroke-opacity="0.1" fill="none"></line><text fill="#212529" x="-9" dy="0.32em">0.6</text></g><g class="tick" opacity="1" transform="translate(0,229)" fill="none"><line stroke="#212529" x2="-6" fill="none"></line><line stroke="#212529" x2="740" stroke-opacity="0.1" fill="none"></line><text fill="#212529" x="-9" dy="0.32em">0.8</text></g><g class="tick" opacity="1" transform="translate(0,195)" fill="none"><line stroke="#212529" x2="-6" fill="none"></line><line stroke="#212529" x2="740" stroke-opacity="0.1" fill="none"></line><text fill="#212529" x="-9" dy="0.32em">1.0</text></g><g class="tick" opacity="1" transform="translate(0,161)" fill="none"><line stroke="#212529" x2="-6" fill="none"></line><line stroke="#212529" x2="740" stroke-opacity="0.1" fill="none"></line><text fill="#212529" x="-9" dy="0.32em">1.2</text></g><g class="tick" opacity="1" transform="translate(0,127.00000000000001)" fill="none"><line stroke="#212529" x2="-6" fill="none"></line><line stroke="#212529" x2="740" stroke-opacity="0.1" fill="none"></line><text fill="#212529" x="-9" dy="0.32em">1.4</text></g><g class="tick" opacity="1" transform="translate(0,92.99999999999999)" fill="none"><line stroke="#212529" x2="-6" fill="none"></line><line stroke="#212529" x2="740" stroke-opacity="0.1" fill="none"></line><text fill="#212529" x="-9" dy="0.32em">1.6</text></g><g class="tick" opacity="1" transform="translate(0,58.99999999999999)" fill="none"><line stroke="#212529" x2="-6" fill="none"></line><line stroke="#212529" x2="740" stroke-opacity="0.1" fill="none"></line><text fill="#212529" x="-9" dy="0.32em">1.8</text></g><g class="tick" opacity="1" transform="translate(0,25)" fill="none"><line stroke="#212529" x2="-6" fill="none"></line><line stroke="#212529" x2="740" stroke-opacity="0.1" fill="none"></line><text fill="#212529" x="-9" dy="0.32em">2.0</text></g><text fill="#212529" font-variant="normal" transform="translate(-40,20)" dy="-1em" text-anchor="start">↑ Score</text></g><g aria-label="x-axis" aria-description="Threshold →" transform="translate(0,370)" fill="none" text-anchor="middle" font-variant="tabular-nums"><g class="tick" opacity="1" transform="translate(45,0)" fill="none"><line stroke="#212529" y2="6" fill="none"></line><line stroke="#212529" y2="-350" stroke-opacity="0.1" fill="none"></line><text fill="#212529" y="9" dy="0.71em">0.000</text></g><g class="tick" opacity="1" transform="translate(101.15384615384616,0)" fill="none"><line stroke="#212529" y2="6" fill="none"></line><line stroke="#212529" y2="-350" stroke-opacity="0.1" fill="none"></line><text fill="#212529" y="9" dy="0.71em">0.002</text></g><g class="tick" opacity="1" transform="translate(157.30769230769232,0)" fill="none"><line stroke="#212529" y2="6" fill="none"></line><line stroke="#212529" y2="-350" stroke-opacity="0.1" fill="none"></line><text fill="#212529" y="9" dy="0.71em">0.004</text></g><g class="tick" opacity="1" transform="translate(213.46153846153848,0)" fill="none"><line stroke="#212529" y2="6" fill="none"></line><line stroke="#212529" y2="-350" stroke-opacity="0.1" fill="none"></line><text fill="#212529" y="9" dy="0.71em">0.006</text></g><g class="tick" opacity="1" transform="translate(269.61538461538464,0)" fill="none"><line stroke="#212529" y2="6" fill="none"></line><line stroke="#212529" y2="-350" stroke-opacity="0.1" fill="none"></line><text fill="#212529" y="9" dy="0.71em">0.008</text></g><g class="tick" opacity="1" transform="translate(325.7692307692308,0)" fill="none"><line stroke="#212529" y2="6" fill="none"></line><line stroke="#212529" y2="-350" stroke-opacity="0.1" fill="none"></line><text fill="#212529" y="9" dy="0.71em">0.010</text></g><g class="tick" opacity="1" transform="translate(381.92307692307696,0)" fill="none"><line stroke="#212529" y2="6" fill="none"></line><line stroke="#212529" y2="-350" stroke-opacity="0.1" fill="none"></line><text fill="#212529" y="9" dy="0.71em">0.012</text></g><g class="tick" opacity="1" transform="translate(438.07692307692315,0)" fill="none"><line stroke="#212529" y2="6" fill="none"></line><line stroke="#212529" y2="-350" stroke-opacity="0.1" fill="none"></line><text fill="#212529" y="9" dy="0.71em">0.014</text></g><g class="tick" opacity="1" transform="translate(494.2307692307693,0)" fill="none"><line stroke="#212529" y2="6" fill="none"></line><line stroke="#212529" y2="-350" stroke-opacity="0.1" fill="none"></line><text fill="#212529" y="9" dy="0.71em">0.016</text></g><g class="tick" opacity="1" transform="translate(550.3846153846154,0)" fill="none"><line stroke="#212529" y2="6" fill="none"></line><line stroke="#212529" y2="-350" stroke-opacity="0.1" fill="none"></line><text fill="#212529" y="9" dy="0.71em">0.018</text></g><g class="tick" opacity="1" transform="translate(606.5384615384615,0)" fill="none"><line stroke="#212529" y2="6" fill="none"></line><line stroke="#212529" y2="-350" stroke-opacity="0.1" fill="none"></line><text fill="#212529" y="9" dy="0.71em">0.020</text></g><g class="tick" opacity="1" transform="translate(662.6923076923076,0)" fill="none"><line stroke="#212529" y2="6" fill="none"></line><line stroke="#212529" y2="-350" stroke-opacity="0.1" fill="none"></line><text fill="#212529" y="9" dy="0.71em">0.022</text></g><g class="tick" opacity="1" transform="translate(718.8461538461539,0)" fill="none"><line stroke="#212529" y2="6" fill="none"></line><line stroke="#212529" y2="-350" stroke-opacity="0.1" fill="none"></line><text fill="#212529" y="9" dy="0.71em">0.024</text></g><g class="tick" opacity="1" transform="translate(775,0)" fill="none"><line stroke="#212529" y2="6" fill="none"></line><line stroke="#212529" y2="-350" stroke-opacity="0.1" fill="none"></line><text fill="#212529" y="9" dy="0.71em">0.026</text></g><text fill="#212529" transform="translate(800,30)" dy="-0.32em" text-anchor="end">Threshold →</text></g><rect aria-label="frame" fill="none" stroke="#212529" x="40" y="20" width="740" height="350"></rect><g aria-label="dot" fill="#212529"><circle cx="45.280769230769224" cy="365" r="3" fill="#446AEE"></circle><circle cx="73.07692307692308" cy="365" r="3" fill="#446AEE"></circle><circle cx="100.5923076923077" cy="365" r="3" fill="#446AEE"></circle><circle cx="128.38846153846154" cy="365" r="3" fill="#4A56DB"></circle><circle cx="128.95" cy="365" r="3" fill="#4762E8"></circle><circle cx="156.1846153846154" cy="361.533088" r="3" fill="#3D7CF7"></circle><circle cx="156.74615384615385" cy="357.834092" r="3" fill="#358EF9"></circle><circle cx="183.98076923076923" cy="350.50969299999997" r="3" fill="#29AFEC"></circle><circle cx="184.5423076923077" cy="347.02063000000004" r="3" fill="#26BDE1"></circle><circle cx="185.10384615384615" cy="347.34142" r="3" fill="#26BCE2"></circle><circle cx="211.77692307692308" cy="330.09815" r="3" fill="#38EE9E"></circle><circle cx="212.33846153846156" cy="310.31201999999996" r="3" fill="#80FD5C"></circle><circle cx="212.9" cy="313.12433000000004" r="3" fill="#74FE64"></circle><circle cx="213.46153846153848" cy="315.74505" r="3" fill="#69FD6B"></circle><circle cx="239.57307692307694" cy="299.45888" r="3" fill="#AEF445"></circle><circle cx="240.1346153846154" cy="262.52077" r="3" fill="#FF9B21"></circle><circle cx="240.6961538461539" cy="260.96051" r="3" fill="#FF9621"></circle><circle cx="241.2576923076923" cy="259.12179000000003" r="3" fill="#FF9120"></circle><circle cx="267.65" cy="224.61094" r="3" fill="#CA2E0C"></circle><circle cx="268.21153846153845" cy="203.92976000000002" r="3" fill="#9A0E00"></circle><circle cx="268.7730769230769" cy="203.92976000000002" r="3" fill="#9A0E00"></circle><circle cx="295.4461538461539" cy="203.92976000000002" r="3" fill="#9A0E00"></circle><circle cx="296.0076923076923" cy="198.78606999999997" r="3" fill="#930C00"></circle><circle cx="296.5692307692307" cy="199.51214000000002" r="3" fill="#940C00"></circle><circle cx="297.13076923076926" cy="200.23820999999998" r="3" fill="#950C00"></circle><circle cx="323.5230769230769" cy="199.80114" r="3" fill="#940C00"></circle><circle cx="324.0846153846154" cy="199.27193" r="3" fill="#940C00"></circle><circle cx="324.6461538461539" cy="199.03155000000004" r="3" fill="#930C00"></circle><circle cx="325.2076923076923" cy="197.88473000000002" r="3" fill="#920C00"></circle><circle cx="325.7692307692308" cy="197.30401" r="3" fill="#920C00"></circle><circle cx="351.3192307692308" cy="196.14461000000003" r="3" fill="#910B00"></circle><circle cx="351.88076923076926" cy="196.55958" r="3" fill="#910B00"></circle><circle cx="352.4423076923077" cy="194.728" r="3" fill="#900C00"></circle><circle cx="353.00384615384615" cy="193.266" r="3" fill="#900C00"></circle><circle cx="353.56538461538463" cy="192.1474" r="3" fill="#900C00"></circle><circle cx="379.6769230769231" cy="194.37609999999998" r="3" fill="#900C00"></circle><circle cx="380.23846153846154" cy="195.82041999999998" r="3" fill="#910B00"></circle><circle cx="380.8" cy="196.08579000000003" r="3" fill="#910B00"></circle><circle cx="381.3615384615385" cy="195.75921999999997" r="3" fill="#910B00"></circle><circle cx="382.2038461538462" cy="193.8355" r="3" fill="#900C00"></circle><circle cx="407.4730769230769" cy="194.3676" r="3" fill="#900C00"></circle><circle cx="408.0346153846154" cy="256.17722" r="3" fill="#FF871E"></circle><circle cx="408.59615384615387" cy="275.85488999999995" r="3" fill="#F8C329"></circle><circle cx="409.15769230769234" cy="258.80865" r="3" fill="#FF9020"></circle><circle cx="409.71923076923076" cy="261.47714" r="3" fill="#FF9821"></circle><circle cx="410.8423076923077" cy="263.64294" r="3" fill="#FF9F22"></circle><circle cx="435.83076923076925" cy="265.39088000000004" r="3" fill="#FFA423"></circle><circle cx="436.3923076923078" cy="263.94843000000003" r="3" fill="#FFA022"></circle><circle cx="436.9538461538462" cy="262.2129" r="3" fill="#FF9A21"></circle><circle cx="437.5153846153846" cy="259.5286" r="3" fill="#FF9220"></circle><circle cx="438.07692307692315" cy="239.01809999999998" r="3" fill="#EE5315"></circle><circle cx="463.90769230769234" cy="257.92771" r="3" fill="#FF8D1F"></circle><circle cx="464.46923076923076" cy="323.19428000000005" r="3" fill="#4CF884"></circle><circle cx="465.03076923076924" cy="334.19736" r="3" fill="#2EE5AE"></circle><circle cx="465.59230769230777" cy="354.11979599999995" r="3" fill="#2E9FF4"></circle><circle cx="466.1538461538462" cy="348.95431199999996" r="3" fill="#27B5E7"></circle><circle cx="466.71538461538466" cy="348.574957" r="3" fill="#27B7E6"></circle><circle cx="467.55769230769226" cy="349.339328" r="3" fill="#28B4E8"></circle><circle cx="492.2653846153847" cy="350.528019" r="3" fill="#29AFEC"></circle><circle cx="492.8269230769231" cy="351.34478399999995" r="3" fill="#2AABEE"></circle><circle cx="493.3884615384616" cy="362.752413" r="3" fill="#4075F5"></circle><circle cx="493.95000000000005" cy="365" r="3" fill="#4567ED"></circle><circle cx="494.5115384615385" cy="364.3640759" r="3" fill="#436DF1"></circle><circle cx="495.0730769230769" cy="364.67790099999996" r="3" fill="#446CF0"></circle><circle cx="495.63461538461536" cy="363.87717380000004" r="3" fill="#4270F2"></circle><circle cx="497.03846153846155" cy="360.883518" r="3" fill="#3C7FF8"></circle><circle cx="520.3423076923077" cy="359.469832" r="3" fill="#3986F9"></circle><circle cx="520.9038461538462" cy="359.464851" r="3" fill="#3986F9"></circle><circle cx="521.4653846153847" cy="360.240391" r="3" fill="#3B82F8"></circle><circle cx="522.0269230769231" cy="361.776579" r="3" fill="#3E7AF7"></circle><circle cx="522.5884615384616" cy="364.0509444" r="3" fill="#436FF2"></circle><circle cx="523.15" cy="365" r="3" fill="#4568ED"></circle><circle cx="523.7115384615385" cy="365" r="3" fill="#4761E7"></circle><circle cx="524.2730769230769" cy="365" r="3" fill="#485FE5"></circle><circle cx="525.3961538461539" cy="365" r="3" fill="#4860E6"></circle><circle cx="526.8000000000001" cy="365" r="3" fill="#4860E6"></circle><circle cx="548.7" cy="365" r="3" fill="#4761E7"></circle><circle cx="549.2615384615385" cy="365" r="3" fill="#485EE4"></circle><circle cx="549.823076923077" cy="365" r="3" fill="#485DE3"></circle><circle cx="550.3846153846154" cy="365" r="3" fill="#495BE1"></circle><circle cx="550.946153846154" cy="365" r="3" fill="#495BE0"></circle><circle cx="551.5076923076923" cy="365" r="3" fill="#495BE1"></circle><circle cx="552.0692307692308" cy="365" r="3" fill="#495BE1"></circle><circle cx="552.6307692307693" cy="365" r="3" fill="#495CE2"></circle><circle cx="553.7538461538462" cy="365" r="3" fill="#485FE5"></circle><circle cx="577.0576923076924" cy="365" r="3" fill="#4664EA"></circle><circle cx="577.6192307692307" cy="365" r="3" fill="#4665EB"></circle><circle cx="578.1807692307692" cy="306.60483" r="3" fill="#90FB53"></circle><circle cx="578.7423076923077" cy="250.82171" r="3" fill="#FF771C"></circle><circle cx="579.3038461538462" cy="194.9575" r="3" fill="#900C00"></circle><circle cx="579.8653846153846" cy="324.03238" r="3" fill="#4AF787"></circle><circle cx="580.4269230769231" cy="350.276844" r="3" fill="#29B0EB"></circle><circle cx="580.9884615384616" cy="361.400777" r="3" fill="#3D7CF7"></circle><circle cx="581.55" cy="365" r="3" fill="#495CE2"></circle><circle cx="582.3923076923078" cy="365" r="3" fill="#4760E6"></circle><circle cx="582.9538461538461" cy="365" r="3" fill="#4763E9"></circle><circle cx="605.4153846153846" cy="365" r="3" fill="#4568ED"></circle><circle cx="605.9769230769232" cy="365" r="3" fill="#4568ED"></circle><circle cx="606.5384615384615" cy="365" r="3" fill="#4567EC"></circle><circle cx="607.1" cy="365" r="3" fill="#4764E9"></circle><circle cx="607.6615384615384" cy="365" r="3" fill="#4860E6"></circle><circle cx="608.223076923077" cy="365" r="3" fill="#485FE4"></circle><circle cx="608.7846153846153" cy="365" r="3" fill="#485DE3"></circle><circle cx="609.3461538461538" cy="365" r="3" fill="#495CE2"></circle><circle cx="609.9076923076924" cy="365" r="3" fill="#495BE1"></circle><circle cx="610.4692307692308" cy="365" r="3" fill="#495BE0"></circle><circle cx="611.0307692307694" cy="365" r="3" fill="#495BE0"></circle><circle cx="633.7730769230769" cy="365" r="3" fill="#495CE1"></circle><circle cx="634.3346153846155" cy="365" r="3" fill="#485DE3"></circle><circle cx="634.8961538461539" cy="365" r="3" fill="#485FE5"></circle><circle cx="635.4576923076924" cy="365" r="3" fill="#485FE5"></circle><circle cx="636.0192307692308" cy="365" r="3" fill="#485EE4"></circle><circle cx="636.5807692307692" cy="365" r="3" fill="#485DE3"></circle><circle cx="637.1423076923078" cy="365" r="3" fill="#495CE2"></circle><circle cx="637.7038461538461" cy="365" r="3" fill="#495BE0"></circle><circle cx="638.2653846153846" cy="365" r="3" fill="#495BE0"></circle><circle cx="638.826923076923" cy="365" r="3" fill="#495AE0"></circle><circle cx="639.3884615384616" cy="365" r="3" fill="#495AE0"></circle><circle cx="640.2307692307692" cy="365" r="3" fill="#495BE0"></circle><circle cx="641.3538461538461" cy="365" r="3" fill="#495CE2"></circle><circle cx="662.6923076923076" cy="365" r="3" fill="#485EE4"></circle><circle cx="663.2538461538462" cy="365" r="3" fill="#485FE4"></circle><circle cx="663.8153846153846" cy="365" r="3" fill="#485EE4"></circle><circle cx="664.3769230769232" cy="365" r="3" fill="#485EE3"></circle><circle cx="664.9384615384615" cy="365" r="3" fill="#485DE2"></circle><circle cx="665.5000000000001" cy="365" r="3" fill="#495CE2"></circle><circle cx="666.0615384615386" cy="365" r="3" fill="#495CE2"></circle><circle cx="666.623076923077" cy="365" r="3" fill="#495CE2"></circle><circle cx="667.1846153846154" cy="365" r="3" fill="#495CE1"></circle><circle cx="667.7461538461538" cy="365" r="3" fill="#495BE1"></circle><circle cx="668.3076923076924" cy="365" r="3" fill="#495BE0"></circle><circle cx="668.8692307692307" cy="365" r="3" fill="#495AE0"></circle><circle cx="669.4307692307692" cy="365" r="3" fill="#495AE0"></circle><circle cx="670.5538461538462" cy="365" r="3" fill="#495AE0"></circle><circle cx="691.05" cy="365" r="3" fill="#495BE0"></circle><circle cx="691.6115384615384" cy="365" r="3" fill="#495CE1"></circle><circle cx="692.173076923077" cy="365" r="3" fill="#485DE3"></circle><circle cx="692.7346153846154" cy="365" r="3" fill="#485EE4"></circle><circle cx="693.2961538461539" cy="365" r="3" fill="#485EE4"></circle><circle cx="693.8576923076923" cy="365" r="3" fill="#485DE3"></circle><circle cx="694.4192307692308" cy="365" r="3" fill="#495CE2"></circle><circle cx="694.9807692307693" cy="365" r="3" fill="#495BE1"></circle><circle cx="695.5423076923078" cy="365" r="3" fill="#495BE0"></circle><circle cx="696.1038461538462" cy="365" r="3" fill="#495AE0"></circle><circle cx="696.6653846153847" cy="365" r="3" fill="#495AE0"></circle><circle cx="697.2269230769232" cy="365" r="3" fill="#495AE0"></circle><circle cx="697.7884615384615" cy="365" r="3" fill="#495AE0"></circle><circle cx="699.1923076923077" cy="365" r="3" fill="#495AE0"></circle><circle cx="700.0346153846153" cy="365" r="3" fill="#495BE0"></circle><circle cx="700.5961538461538" cy="365" r="3" fill="#495BE1"></circle><circle cx="719.6884615384615" cy="365" r="3" fill="#485EE3"></circle><circle cx="720.25" cy="365" r="3" fill="#4860E6"></circle><circle cx="720.8115384615386" cy="365" r="3" fill="#4763E8"></circle><circle cx="721.373076923077" cy="365" r="3" fill="#4763E8"></circle><circle cx="721.9346153846154" cy="365" r="3" fill="#4761E7"></circle><circle cx="722.4961538461538" cy="365" r="3" fill="#485FE5"></circle><circle cx="723.0576923076925" cy="365" r="3" fill="#495CE2"></circle><circle cx="723.6192307692309" cy="365" r="3" fill="#495BE1"></circle><circle cx="724.1807692307692" cy="365" r="3" fill="#495AE0"></circle><circle cx="724.7423076923077" cy="365" r="3" fill="#46369A"></circle><circle cx="725.3038461538463" cy="365" r="3" fill="#23171B"></circle><circle cx="725.8653846153846" cy="365" r="3" fill="#446AEE"></circle></g></svg>