<svg xmlns:xlink="http://www.w3.org/1999/xlink" xmlns="http://www.w3.org/2000/svg" class="plot-9c22f826e4261" fill="currentColor" font-family="system-ui, sans-serif" font-size="10" text-anchor="middle" width="800" height="430" viewBox="0 0 800 430" style="font-size: 15px;"><style fill="#212529">
        .plot-9c22f826e4261 {
          display: block;
          background: white;
          height: auto;
          height: intrinsic;
          max-width: 100%;
        }
        .plot-9c22f826e4261 text,
        .plot-9c22f826e4261 tspan {
          white-space: pre;
        }
      </style><g aria-label="y-axis" aria-description="↑ Score" transform="translate(40,0)" fill="none" text-anchor="end" font-variant="tabular-nums"><g class="tick" opacity="1" transform="translate(0,375)" fill="none"><line stroke="#212529" x2="-10" fill="none"></line><line stroke="#212529" x2="740" stroke-opacity="0.1" fill="none"></line><text fill="#212529" x="-15" dy="0.32em">0.0</text></g><g class="tick" opacity="1" transform="translate(0,341)" fill="none"><line stroke="#212529" x2="-10" fill="none"></line><line stroke="#212529" x2="740" stroke-opacity="0.1" fill="none"></line><text fill="#212529" x="-15" dy="0.32em">0.2</text></g><g class="tick" opacity="1" transform="translate(0,307)" fill="none"><line stroke="#212529" x2="-10" fill="none"></line><line stroke="#212529" x2="740" stroke-opacity="0.1" fill="none"></line><text fill="#212529" x="-15" dy="0.32em">0.4</text></g><g class="tick" opacity="1" transform="translate(0,273)" fill="none"><line stroke="#212529" x2="-10" fill="none"></line><line stroke="#212529" x2="740" stroke-opacity="0.1" fill="none"></line><text fill="#212529" x="-15" dy="0.32em">0.6</text></g><g class="tick" opacity="1" transform="translate(0,239)" fill="none"><line stroke="#212529" x2="-10" fill="none"></line><line stroke="#212529" x2="740" stroke-opacity="0.1" fill="none"></line><text fill="#212529" x="-15" dy="0.32em">0.8</text></g><g class="tick" opacity="1" transform="translate(0,205)" fill="none"><line stroke="#212529" x2="-10" fill="none"></line><line stroke="#212529" x2="740" stroke-opacity="0.1" fill="none"></line><text fill="#212529" x="-15" dy="0.32em">1.0</text></g><g class="tick" opacity="1" transform="translate(0,171)" fill="none"><line stroke="#212529" x2="-10" fill="none"></line><line stroke="#212529" x2="740" stroke-opacity="0.1" fill="none"></line><text fill="#212529" x="-15" dy="0.32em">1.2</text></g><g class="tick" opacity="1" transform="translate(0,137)" fill="none"><line stroke="#212529" x2="-10" fill="none"></line><line stroke="#212529" x2="740" stroke-opacity="0.1" fill="none"></line><text fill="#212529" x="-15" dy="0.32em">1.4</text></g><g class="tick" opacity="1" transform="translate(0,102.99999999999999)" fill="none"><line stroke="#212529" x2="-10" fill="none"></line><line stroke="#212529" x2="740" stroke-opacity="0.1" fill="none"></line><text fill="#212529" x="-15" dy="0.32em">1.6</text></g><g class="tick" opacity="1" transform="translate(0,69)" fill="none"><line stroke="#212529" x2="-10" fill="none"></line><line stroke="#212529" x2="740" stroke-opacity="0.1" fill="none"></line><text fill="#212529" x="-15" dy="0.32em">1.8</text></g><g class="tick" opacity="1" transform="translate(0,35)" fill="none"><line stroke="#212529" x2="-10" fill="none"></line><line stroke="#212529" x2="740" stroke-opacity="0.1" fill="none"></line><text fill="#212529" x="-15" dy="0.32em">2.0</text></g><text fill="#212529" font-variant="normal" transform="translate(-40,30)" dy="-1em" text-anchor="start">↑ Score</text></g><g aria-label="x-axis" aria-description="Threshold →" transform="translate(0,380)" fill="none" text-anchor="middle" font-variant="tabular-nums"><g class="tick" opacity="1" transform="translate(76,0)" fill="none"><line stroke="#212529" y2="10" fill="none"></line><line stroke="#212529" y2="-350" stroke-opacity="0.1" fill="none"></line><text fill="#212529" y="15" dy="0.71em">0.000</text></g><g class="tick" opacity="1" transform="translate(129.76923076923077,0)" fill="none"><line stroke="#212529" y2="10" fill="none"></line><line stroke="#212529" y2="-350" stroke-opacity="0.1" fill="none"></line><text fill="#212529" y="15" dy="0.71em">0.002</text></g><g class="tick" opacity="1" transform="translate(183.53846153846155,0)" fill="none"><line stroke="#212529" y2="10" fill="none"></line><line stroke="#212529" y2="-350" stroke-opacity="0.1" fill="none"></line><text fill="#212529" y="15" dy="0.71em">0.004</text></g><g class="tick" opacity="1" transform="translate(237.30769230769232,0)" fill="none"><line stroke="#212529" y2="10" fill="none"></line><line stroke="#212529" y2="-350" stroke-opacity="0.1" fill="none"></line><text fill="#212529" y="15" dy="0.71em">0.006</text></g><g class="tick" opacity="1" transform="translate(291.0769230769231,0)" fill="none"><line stroke="#212529" y2="10" fill="none"></line><line stroke="#212529" y2="-350" stroke-opacity="0.1" fill="none"></line><text fill="#212529" y="15" dy="0.71em">0.008</text></g><g class="tick" opacity="1" transform="translate(344.84615384615387,0)" fill="none"><line stroke="#212529" y2="10" fill="none"></line><line stroke="#212529" y2="-350" stroke-opacity="0.1" fill="none"></line><text fill="#212529" y="15" dy="0.71em">0.010</text></g><g class="tick" opacity="1" transform="translate(398.61538461538464,0)" fill="none"><line stroke="#212529" y2="10" fill="none"></line><line stroke="#212529" y2="-350" stroke-opacity="0.1" fill="none"></line><text fill="#212529" y="15" dy="0.71em">0.012</text></g><g class="tick" opacity="1" transform="translate(452.3846153846155,0)" fill="none"><line stroke="#212529" y2="10" fill="none"></line><line stroke="#212529" y2="-350" stroke-opacity="0.1" fill="none"></line><text fill="#212529" y="15" dy="0.71em">0.014</text></g><g class="tick" opacity="1" transform="translate(506.1538461538462,0)" fill="none"><line stroke="#212529" y2="10" fill="none"></line><line stroke="#212529" y2="-350" stroke-opacity="0.1" fill="none"></line><text fill="#212529" y="15" dy="0.71em">0.016</text></g><g class="tick" opacity="1" transform="translate(559.9230769230769,0)" fill="none"><line stroke="#212529" y2="10" fill="none"></line><line stroke="#212529" y2="-350" stroke-opacity="0.1" fill="none"></line><text fill="#212529" y="15" dy="0.71em">0.018</text></g><g class="tick" opacity="1" transform="translate(613.6923076923077,0)" fill="none"><line stroke="#212529" y2="10" fill="none"></line><line stroke="#212529" y2="-350" stroke-opacity="0.1" fill="none"></line><text fill="#212529" y="15" dy="0.71em">0.020</text></g><g class="tick" opacity="1" transform="translate(667.4615384615385,0)" fill="none"><line stroke="#212529" y2="10" fill="none"></line><line stroke="#212529" y2="-350" stroke-opacity="0.1" fill="none"></line><text fill="#212529" y="15" dy="0.71em">0.022</text></g><g class="tick" opacity="1" transform="translate(721.2307692307693,0)" fill="none"><line stroke="#212529" y2="10" fill="none"></line><line stroke="#212529" y2="-350" stroke-opacity="0.1" fill="none"></line><text fill="#212529" y="15" dy="0.71em">0.024</text></g><g class="tick" opacity="1" transform="translate(775,0)" fill="none"><line stroke="#212529" y2="10" fill="none"></line><line stroke="#212529" y2="-350" stroke-opacity="0.1" fill="none"></line><text fill="#212529" y="15" dy="0.71em">0.026</text></g><text fill="#212529" transform="translate(800,50)" dy="-0.32em" text-anchor="end">Threshold →</text></g><rect aria-label="frame" fill="none" stroke="#212529" x="40" y="30" width="740" height="350"></rect><g aria-label="dot" fill="#212529"><circle cx="76.26884615384614" cy="375" r="3" fill="#446AEE"></circle><circle cx="102.88461538461539" cy="375" r="3" fill="#446AEE"></circle><circle cx="129.23153846153846" cy="375" r="3" fill="#446AEE"></circle><circle cx="155.8473076923077" cy="375" r="3" fill="#4A56DB"></circle><circle cx="156.385" cy="375" r="3" fill="#4762E8"></circle><circle cx="182.46307692307693" cy="371.533088" r="3" fill="#3D7CF7"></circle><circle cx="183.00076923076924" cy="367.834092" r="3" fill="#358EF9"></circle><circle cx="209.07884615384617" cy="360.509693" r="3" fill="#29AFEC"></circle><circle cx="209.61653846153848" cy="357.02063" r="3" fill="#26BDE1"></circle><circle cx="210.15423076923076" cy="357.34141999999997" r="3" fill="#26BCE2"></circle><circle cx="235.6946153846154" cy="340.09815" r="3" fill="#38EE9E"></circle><circle cx="236.2323076923077" cy="320.31202" r="3" fill="#80FD5C"></circle><circle cx="236.77" cy="323.12433000000004" r="3" fill="#74FE64"></circle><circle cx="237.30769230769232" cy="325.74505" r="3" fill="#69FD6B"></circle><circle cx="262.31038461538463" cy="309.45887999999997" r="3" fill="#AEF445"></circle><circle cx="262.8480769230769" cy="272.52076999999997" r="3" fill="#FF9B21"></circle><circle cx="263.38576923076926" cy="270.96051" r="3" fill="#FF9621"></circle><circle cx="263.92346153846154" cy="269.12179000000003" r="3" fill="#FF9120"></circle><circle cx="289.195" cy="234.61094000000003" r="3" fill="#CA2E0C"></circle><circle cx="289.73269230769233" cy="213.92976000000002" r="3" fill="#9A0E00"></circle><circle cx="290.2703846153846" cy="213.92976000000002" r="3" fill="#9A0E00"></circle><circle cx="315.81076923076927" cy="213.92976000000002" r="3" fill="#9A0E00"></circle><circle cx="316.34846153846155" cy="208.78606999999997" r="3" fill="#930C00"></circle><circle cx="316.88615384615383" cy="209.51214000000002" r="3" fill="#940C00"></circle><circle cx="317.42384615384617" cy="210.23820999999998" r="3" fill="#950C00"></circle><circle cx="342.69538461538457" cy="209.80114" r="3" fill="#940C00"></circle><circle cx="343.23307692307696" cy="209.27193" r="3" fill="#940C00"></circle><circle cx="343.77076923076925" cy="209.03155000000004" r="3" fill="#930C00"></circle><circle cx="344.30846153846153" cy="207.88473000000002" r="3" fill="#920C00"></circle><circle cx="344.84615384615387" cy="207.30400999999998" r="3" fill="#920C00"></circle><circle cx="369.31115384615384" cy="206.14461000000003" r="3" fill="#910B00"></circle><circle cx="369.8488461538462" cy="206.55957999999998" r="3" fill="#910B00"></circle><circle cx="370.38653846153846" cy="204.72799999999998" r="3" fill="#900C00"></circle><circle cx="370.9242307692308" cy="203.26600000000002" r="3" fill="#900C00"></circle><circle cx="371.4619230769231" cy="202.1474" r="3" fill="#900C00"></circle><circle cx="396.4646153846154" cy="204.37609999999998" r="3" fill="#900C00"></circle><circle cx="397.0023076923077" cy="205.82042" r="3" fill="#910B00"></circle><circle cx="397.54" cy="206.08579000000003" r="3" fill="#910B00"></circle><circle cx="398.0776923076923" cy="205.75921999999997" r="3" fill="#910B00"></circle><circle cx="398.8842307692308" cy="203.8355" r="3" fill="#900C00"></circle><circle cx="423.0803846153846" cy="204.3676" r="3" fill="#900C00"></circle><circle cx="423.61807692307696" cy="266.17722" r="3" fill="#FF871E"></circle><circle cx="424.15576923076924" cy="285.85488999999995" r="3" fill="#F8C329"></circle><circle cx="424.6934615384616" cy="268.80865" r="3" fill="#FF9020"></circle><circle cx="425.23115384615386" cy="271.47714" r="3" fill="#FF9821"></circle><circle cx="426.3065384615385" cy="273.64294" r="3" fill="#FF9F22"></circle><circle cx="450.2338461538462" cy="275.39088" r="3" fill="#FFA423"></circle><circle cx="450.7715384615385" cy="273.94843000000003" r="3" fill="#FFA022"></circle><circle cx="451.3092307692308" cy="272.2129" r="3" fill="#FF9A21"></circle><circle cx="451.8469230769231" cy="269.5286" r="3" fill="#FF9220"></circle><circle cx="452.3846153846155" cy="249.01809999999998" r="3" fill="#EE5315"></circle><circle cx="477.1184615384616" cy="267.92771000000005" r="3" fill="#FF8D1F"></circle><circle cx="477.65615384615387" cy="333.19428" r="3" fill="#4CF884"></circle><circle cx="478.19384615384615" cy="344.19736" r="3" fill="#2EE5AE"></circle><circle cx="478.73153846153855" cy="364.119796" r="3" fill="#2E9FF4"></circle><circle cx="479.2692307692308" cy="358.954312" r="3" fill="#27B5E7"></circle><circle cx="479.8069230769231" cy="358.57495700000004" r="3" fill="#27B7E6"></circle><circle cx="480.6134615384615" cy="359.33932799999997" r="3" fill="#28B4E8"></circle><circle cx="504.27192307692314" cy="360.52801900000003" r="3" fill="#29AFEC"></circle><circle cx="504.80961538461537" cy="361.344784" r="3" fill="#2AABEE"></circle><circle cx="505.34730769230777" cy="372.752413" r="3" fill="#4075F5"></circle><circle cx="505.88500000000005" cy="375" r="3" fill="#4567ED"></circle><circle cx="506.4226923076924" cy="374.3640759" r="3" fill="#436DF1"></circle><circle cx="506.96038461538456" cy="374.67790099999996" r="3" fill="#446CF0"></circle><circle cx="507.4980769230769" cy="373.8771738" r="3" fill="#4270F2"></circle><circle cx="508.8423076923077" cy="370.88351800000004" r="3" fill="#3C7FF8"></circle><circle cx="531.1565384615385" cy="369.469832" r="3" fill="#3986F9"></circle><circle cx="531.6942307692308" cy="369.464851" r="3" fill="#3986F9"></circle><circle cx="532.2319230769231" cy="370.24039100000005" r="3" fill="#3B82F8"></circle><circle cx="532.7696153846155" cy="371.776579" r="3" fill="#3E7AF7"></circle><circle cx="533.3073076923077" cy="374.0509444" r="3" fill="#436FF2"></circle><circle cx="533.845" cy="375" r="3" fill="#4568ED"></circle><circle cx="534.3826923076923" cy="375" r="3" fill="#4761E7"></circle><circle cx="534.9203846153846" cy="375" r="3" fill="#485FE5"></circle><circle cx="535.9957692307693" cy="375" r="3" fill="#4860E6"></circle><circle cx="537.3400000000001" cy="375" r="3" fill="#4860E6"></circle><circle cx="558.31" cy="375" r="3" fill="#4761E7"></circle><circle cx="558.8476923076923" cy="375" r="3" fill="#485EE4"></circle><circle cx="559.3853846153846" cy="375" r="3" fill="#485DE3"></circle><circle cx="559.9230769230769" cy="375" r="3" fill="#495BE1"></circle><circle cx="560.4607692307693" cy="375" r="3" fill="#495BE0"></circle><circle cx="560.9984615384616" cy="375" r="3" fill="#495BE1"></circle><circle cx="561.5361538461539" cy="375" r="3" fill="#495BE1"></circle><circle cx="562.0738461538461" cy="375" r="3" fill="#495CE2"></circle><circle cx="563.1492307692308" cy="375" r="3" fill="#485FE5"></circle><circle cx="585.4634615384616" cy="375" r="3" fill="#4664EA"></circle><circle cx="586.0011538461539" cy="375" r="3" fill="#4665EB"></circle><circle cx="586.5388461538462" cy="316.60482999999994" r="3" fill="#90FB53"></circle><circle cx="587.0765384615385" cy="260.82171" r="3" fill="#FF771C"></circle><circle cx="587.6142307692307" cy="204.95749999999998" r="3" fill="#900C00"></circle><circle cx="588.151923076923" cy="334.03238000000005" r="3" fill="#4AF787"></circle><circle cx="588.6896153846154" cy="360.27684400000004" r="3" fill="#29B0EB"></circle><circle cx="589.2273076923077" cy="371.400777" r="3" fill="#3D7CF7"></circle><circle cx="589.765" cy="375" r="3" fill="#495CE2"></circle><circle cx="590.5715384615385" cy="375" r="3" fill="#4760E6"></circle><circle cx="591.1092307692307" cy="375" r="3" fill="#4763E9"></circle><circle cx="612.6169230769231" cy="375" r="3" fill="#4568ED"></circle><circle cx="613.1546153846155" cy="375" r="3" fill="#4568ED"></circle><circle cx="613.6923076923077" cy="375" r="3" fill="#4567EC"></circle><circle cx="614.23" cy="375" r="3" fill="#4764E9"></circle><circle cx="614.7676923076923" cy="375" r="3" fill="#4860E6"></circle><circle cx="615.3053846153847" cy="375" r="3" fill="#485FE4"></circle><circle cx="615.843076923077" cy="375" r="3" fill="#485DE3"></circle><circle cx="616.3807692307691" cy="375" r="3" fill="#495CE2"></circle><circle cx="616.9184615384615" cy="375" r="3" fill="#495BE1"></circle><circle cx="617.4561538461538" cy="375" r="3" fill="#495BE0"></circle><circle cx="617.9938461538462" cy="375" r="3" fill="#495BE0"></circle><circle cx="639.7703846153846" cy="375" r="3" fill="#495CE1"></circle><circle cx="640.308076923077" cy="375" r="3" fill="#485DE3"></circle><circle cx="640.8457692307693" cy="375" r="3" fill="#485FE5"></circle><circle cx="641.3834615384616" cy="375" r="3" fill="#485FE5"></circle><circle cx="641.9211538461539" cy="375" r="3" fill="#485EE4"></circle><circle cx="642.4588461538461" cy="375" r="3" fill="#485DE3"></circle><circle cx="642.9965384615385" cy="375" r="3" fill="#495CE2"></circle><circle cx="643.5342307692308" cy="375" r="3" fill="#495BE0"></circle><circle cx="644.0719230769231" cy="375" r="3" fill="#495BE0"></circle><circle cx="644.6096153846154" cy="375" r="3" fill="#495AE0"></circle><circle cx="645.1473076923078" cy="375" r="3" fill="#495AE0"></circle><circle cx="645.9538461538461" cy="375" r="3" fill="#495BE0"></circle><circle cx="647.0292307692307" cy="375" r="3" fill="#495CE2"></circle><circle cx="667.4615384615385" cy="375" r="3" fill="#485EE4"></circle><circle cx="667.9992307692307" cy="375" r="3" fill="#485FE4"></circle><circle cx="668.536923076923" cy="375" r="3" fill="#485EE4"></circle><circle cx="669.0746153846154" cy="375" r="3" fill="#485EE3"></circle><circle cx="669.6123076923077" cy="375" r="3" fill="#485DE2"></circle><circle cx="670.1500000000001" cy="375" r="3" fill="#495CE2"></circle><circle cx="670.6876923076924" cy="375" r="3" fill="#495CE2"></circle><circle cx="671.2253846153847" cy="375" r="3" fill="#495CE2"></circle><circle cx="671.7630769230769" cy="375" r="3" fill="#495CE1"></circle><circle cx="672.3007692307692" cy="375" r="3" fill="#495BE1"></circle><circle cx="672.8384615384616" cy="375" r="3" fill="#495BE0"></circle><circle cx="673.3761538461539" cy="375" r="3" fill="#495AE0"></circle><circle cx="673.9138461538462" cy="375" r="3" fill="#495AE0"></circle><circle cx="674.9892307692307" cy="375" r="3" fill="#495AE0"></circle><circle cx="694.615" cy="375" r="3" fill="#495BE0"></circle><circle cx="695.1526923076923" cy="375" r="3" fill="#495CE1"></circle><circle cx="695.6903846153847" cy="375" r="3" fill="#485DE3"></circle><circle cx="696.228076923077" cy="375" r="3" fill="#485EE4"></circle><circle cx="696.7657692307693" cy="375" r="3" fill="#485EE4"></circle><circle cx="697.3034615384615" cy="375" r="3" fill="#485DE3"></circle><circle cx="697.8411538461538" cy="375" r="3" fill="#495CE2"></circle><circle cx="698.3788461538462" cy="375" r="3" fill="#495BE1"></circle><circle cx="698.9165384615385" cy="375" r="3" fill="#495BE0"></circle><circle cx="699.4542307692308" cy="375" r="3" fill="#495AE0"></circle><circle cx="699.9919230769232" cy="375" r="3" fill="#495AE0"></circle><circle cx="700.5296153846155" cy="375" r="3" fill="#495AE0"></circle><circle cx="701.0673076923077" cy="375" r="3" fill="#495AE0"></circle><circle cx="702.4115384615385" cy="375" r="3" fill="#495AE0"></circle><circle cx="703.218076923077" cy="375" r="3" fill="#495BE0"></circle><circle cx="703.7557692307691" cy="375" r="3" fill="#495BE1"></circle><circle cx="722.0373076923078" cy="375" r="3" fill="#485EE3"></circle><circle cx="722.575" cy="375" r="3" fill="#4860E6"></circle><circle cx="723.1126923076923" cy="375" r="3" fill="#4763E8"></circle><circle cx="723.6503846153846" cy="375" r="3" fill="#4763E8"></circle><circle cx="724.1880769230769" cy="375" r="3" fill="#4761E7"></circle><circle cx="724.7257692307692" cy="375" r="3" fill="#485FE5"></circle><circle cx="725.2634615384617" cy="375" r="3" fill="#495CE2"></circle><circle cx="725.801153846154" cy="375" r="3" fill="#495BE1"></circle><circle cx="726.3388461538461" cy="375" r="3" fill="#495AE0"></circle><circle cx="726.8765384615384" cy="375" r="3" fill="#46369A"></circle><circle cx="727.4142307692309" cy="375" r="3" fill="#23171B"></circle><circle cx="727.9519230769231" cy="375" r="3" fill="#446AEE"></circle></g></svg>