<svg xmlns:xlink="http://www.w3.org/1999/xlink" xmlns="http://www.w3.org/2000/svg" class="plot-c1c674df455e7" fill="currentColor" font-family="system-ui, sans-serif" font-size="10" text-anchor="middle" width="800" height="430" viewBox="0 0 800 430" style="font-size: 15px;"><style fill="#212529">
        .plot-c1c674df455e7 {
          display: block;
          background: white;
          height: auto;
          height: intrinsic;
          max-width: 100%;
        }
        .plot-c1c674df455e7 text,
        .plot-c1c674df455e7 tspan {
          white-space: pre;
        }
      </style><g aria-label="y-axis" aria-description="↑ Score" transform="translate(40,0)" fill="none" text-anchor="end" font-variant="tabular-nums"><g class="tick" opacity="1" transform="translate(0,375)" fill="none"><line stroke="#212529" x2="-10" fill="none"></line><line stroke="#212529" x2="740" stroke-opacity="0.1" fill="none"></line><text fill="#212529" x="-15" dy="0.32em">0.0</text></g><g class="tick" opacity="1" transform="translate(0,341)" fill="none"><line stroke="#212529" x2="-10" fill="none"></line><line stroke="#212529" x2="740" stroke-opacity="0.1" fill="none"></line><text fill="#212529" x="-15" dy="0.32em">0.2</text></g><g class="tick" opacity="1" transform="translate(0,307)" fill="none"><line stroke="#212529" x2="-10" fill="none"></line><line stroke="#212529" x2="740" stroke-opacity="0.1" fill="none"></line><text fill="#212529" x="-15" dy="0.32em">0.4</text></g><g class="tick" opacity="1" transform="translate(0,273)" fill="none"><line stroke="#212529" x2="-10" fill="none"></line><line stroke="#212529" x2="740" stroke-opacity="0.1" fill="none"></line><text fill="#212529" x="-15" dy="0.32em">0.6</text></g><g class="tick" opacity="1" transform="translate(0,239)" fill="none"><line stroke="#212529" x2="-10" fill="none"></line><line stroke="#212529" x2="740" stroke-opacity="0.1" fill="none"></line><text fill="#212529" x="-15" dy="0.32em">0.8</text></g><g class="tick" opacity="1" transform="translate(0,205)" fill="none"><line stroke="#212529" x2="-10" fill="none"></line><line stroke="#212529" x2="740" stroke-opacity="0.1" fill="none"></line><text fill="#212529" x="-15" dy="0.32em">1.0</text></g><g class="tick" opacity="1" transform="translate(0,171)" fill="none"><line stroke="#212529" x2="-10" fill="none"></line><line stroke="#212529" x2="740" stroke-opacity="0.1" fill="none"></line><text fill="#212529" x="-15" dy="0.32em">1.2</text></g><g class="tick" opacity="1" transform="translate(0,137)" fill="none"><line stroke="#212529" x2="-10" fill="none"></line><line stroke="#212529" x2="740" stroke-opacity="0.1" fill="none"></line><text fill="#212529" x="-15" dy="0.32em">1.4</text></g><g class="tick" opacity="1" transform="translate(0,102.99999999999999)" fill="none"><line stroke="#212529" x2="-10" fill="none"></line><line stroke="#212529" x2="740" stroke-opacity="0.1" fill="none"></line><text fill="#212529" x="-15" dy="0.32em">1.6</text></g><g class="tick" opacity="1" transform="translate(0,69)" fill="none"><line stroke="#212529" x2="-10" fill="none"></line><line stroke="#212529" x2="740" stroke-opacity="0.1" fill="none"></line><text fill="#212529" x="-15" dy="0.32em">1.8</text></g><g class="tick" opacity="1" transform="translate(0,35)" fill="none"><line stroke="#212529" x2="-10" fill="none"></line><line stroke="#212529" x2="740" stroke-opacity="0.1" fill="none"></line><text fill="#212529" x="-15" dy="0.32em">2.0</text></g><text fill="#212529" font-variant="normal" transform="translate(-40,30)" dy="-1em" text-anchor="start">↑ Score</text></g><g aria-label="x-axis" aria-description="Threshold →" transform="translate(0,380)" fill="none" text-anchor="middle" font-variant="tabular-nums"><g class="tick" opacity="1" transform="translate(76,0)" fill="none"><line stroke="#212529" y2="10" fill="none"></line><line stroke="#212529" y2="-350" stroke-opacity="0.1" fill="none"></line><text fill="#212529" y="15" dy="0.71em">0.000</text></g><g class="tick" opacity="1" transform="translate(129.76923076923077,0)" fill="none"><line stroke="#212529" y2="10" fill="none"></line><line stroke="#212529" y2="-350" stroke-opacity="0.1" fill="none"></line><text fill="#212529" y="15" dy="0.71em">0.002</text></g><g class="tick" opacity="1" transform="translate(183.53846153846155,0)" fill="none"><line stroke="#212529" y2="10" fill="none"></line><line stroke="#212529" y2="-350" stroke-opacity="0.1" fill="none"></line><text fill="#212529" y="15" dy="0.71em">0.004</text></g><g class="tick" opacity="1" transform="translate(237.30769230769232,0)" fill="none"><line stroke="#212529" y2="10" fill="none"></line><line stroke="#212529" y2="-350" stroke-opacity="0.1" fill="none"></line><text fill="#212529" y="15" dy="0.71em">0.006</text></g><g class="tick" opacity="1" transform="translate(291.0769230769231,0)" fill="none"><line stroke="#212529" y2="10" fill="none"></line><line stroke="#212529" y2="-350" stroke-opacity="0.1" fill="none"></line><text fill="#212529" y="15" dy="0.71em">0.008</text></g><g class="tick" opacity="1" transform="translate(344.84615384615387,0)" fill="none"><line stroke="#212529" y2="10" fill="none"></line><line stroke="#212529" y2="-350" stroke-opacity="0.1" fill="none"></line><text fill="#212529" y="15" dy="0.71em">0.010</text></g><g class="tick" opacity="1" transform="translate(398.61538461538464,0)" fill="none"><line stroke="#212529" y2="10" fill="none"></line><line stroke="#212529" y2="-350" stroke-opacity="0.1" fill="none"></line><text fill="#212529" y="15" dy="0.71em">0.012</text></g><g class="tick" opacity="1" transform="translate(452.3846153846155,0)" fill="none"><line stroke="#212529" y2="10" fill="none"></line><line stroke="#212529" y2="-350" stroke-opacity="0.1" fill="none"></line><text fill="#212529" y="15" dy="0.71em">0.014</text></g><g class="tick" opacity="1" transform="translate(506.1538461538462,0)" fill="none"><line stroke="#212529" y2="10" fill="none"></line><line stroke="#212529" y2="-350" stroke-opacity="0.1" fill="none"></line><text fill="#212529" y="15" dy="0.71em">0.016</text></g><g class="tick" opacity="1" transform="translate(559.9230769230769,0)" fill="none"><line stroke="#212529" y2="10" fill="none"></line><line stroke="#212529" y2="-350" stroke-opacity="0.1" fill="none"></line><text fill="#212529" y="15" dy="0.71em">0.018</text></g><g class="tick" opacity="1" transform="translate(613.6923076923077,0)" fill="none"><line stroke="#212529" y2="10" fill="none"></line><line stroke="#212529" y2="-350" stroke-opacity="0.1" fill="none"></line><text fill="#212529" y="15" dy="0.71em">0.020</text></g><g class="tick" opacity="1" transform="translate(667.4615384615385,0)" fill="none"><line stroke="#212529" y2="10" fill="none"></line><line stroke="#212529" y2="-350" stroke-opacity="0.1" fill="none"></line><text fill="#212529" y="15" dy="0.71em">0.022</text></g><g class="tick" opacity="1" transform="translate(721.2307692307693,0)" fill="none"><line stroke="#212529" y2="10" fill="none"></line><line stroke="#212529" y2="-350" stroke-opacity="0.1" fill="none"></line><text fill="#212529" y="15" dy="0.71em">0.024</text></g><g class="tick" opacity="1" transform="translate(775,0)" fill="none"><line stroke="#212529" y2="10" fill="none"></line><line stroke="#212529" y2="-350" stroke-opacity="0.1" fill="none"></line><text fill="#212529" y="15" dy="0.71em">0.026</text></g><text fill="#212529" transform="translate(800,50)" dy="-0.32em" text-anchor="end">Threshold →</text></g><rect aria-label="frame" fill="none" stroke="#212529" x="40" y="30" width="740" height="350"></rect><g aria-label="dot" fill="#212529"><circle cx="76.26884615384614" cy="375" r="3" fill="#2DE3B2"></circle><circle cx="94.28153846153846" cy="375" r="3" fill="#2DE3B2"></circle><circle cx="96.97" cy="375" r="3" fill="#2DE3B2"></circle><circle cx="112.29423076923078" cy="375" r="3" fill="#2DE3B2"></circle><circle cx="117.67115384615384" cy="292.74362999999994" r="3" fill="#F9C129"></circle><circle cx="130.30692307692308" cy="249.39635" r="3" fill="#FC6A19"></circle><circle cx="135.14615384615385" cy="205" r="3" fill="#BA2209"></circle><circle cx="138.3723076923077" cy="334.50481" r="3" fill="#98FA4F"></circle><circle cx="148.31961538461536" cy="364.55758" r="3" fill="#40F392"></circle><circle cx="159.07346153846154" cy="375" r="3" fill="#28D9C1"></circle><circle cx="164.18153846153845" cy="375" r="3" fill="#27B7E6"></circle><circle cx="166.3323076923077" cy="375" r="3" fill="#2DA2F3"></circle><circle cx="166.87" cy="375" r="3" fill="#25C7D6"></circle><circle cx="180.04346153846154" cy="375" r="3" fill="#26D0CC"></circle><circle cx="184.61384615384617" cy="375" r="3" fill="#27D5C6"></circle><circle cx="193.48576923076922" cy="375" r="3" fill="#28D9C0"></circle><circle cx="200.7446153846154" cy="375" r="3" fill="#26D0CC"></circle><circle cx="202.62653846153847" cy="375" r="3" fill="#25C9D4"></circle><circle cx="203.16423076923076" cy="375" r="3" fill="#25CBD2"></circle><circle cx="210.69192307692308" cy="375" r="3" fill="#25CCD1"></circle><circle cx="220.63923076923078" cy="375" r="3" fill="#2ADEB9"></circle><circle cx="221.44576923076923" cy="370.345723" r="3" fill="#34EBA3"></circle><circle cx="221.98346153846154" cy="370.74056500000006" r="3" fill="#33EAA5"></circle><circle cx="223.05884615384616" cy="371.09912899999995" r="3" fill="#33EAA6"></circle><circle cx="223.86538461538458" cy="370.562048" r="3" fill="#34EBA4"></circle><circle cx="226.82269230769234" cy="373.62698140000003" r="3" fill="#2FE5AE"></circle><circle cx="238.65192307692305" cy="375" r="3" fill="#2BDFB7"></circle><circle cx="239.1896153846154" cy="375" r="3" fill="#29DBBD"></circle><circle cx="242.41576923076926" cy="375" r="3" fill="#27D7C3"></circle><circle cx="242.95346153846157" cy="375" r="3" fill="#25C7D7"></circle><circle cx="252.3630769230769" cy="375" r="3" fill="#25C1DD"></circle><circle cx="252.90076923076924" cy="375" r="3" fill="#25C4DA"></circle><circle cx="256.6646153846154" cy="375" r="3" fill="#25CCD2"></circle><circle cx="257.2023076923077" cy="369.24427600000007" r="3" fill="#36EDA0"></circle><circle cx="263.1169230769231" cy="348.09869000000003" r="3" fill="#6DFE68"></circle><circle cx="263.6546153846154" cy="316.52900999999997" r="3" fill="#CBE839"></circle><circle cx="264.19230769230774" cy="322.06557" r="3" fill="#BCEF3F"></circle><circle cx="274.9461538461539" cy="338.1712" r="3" fill="#8CFC55"></circle><circle cx="275.4838461538462" cy="332.86431" r="3" fill="#9DF94D"></circle><circle cx="276.0215384615385" cy="341.24174000000005" r="3" fill="#82FD5B"></circle><circle cx="281.93615384615384" cy="321.14774" r="3" fill="#BFEE3E"></circle><circle cx="282.4738461538462" cy="316.33946000000003" r="3" fill="#CCE839"></circle><circle cx="283.01153846153846" cy="309.36197999999996" r="3" fill="#DCDE33"></circle><circle cx="284.0869230769231" cy="276.26637999999997" r="3" fill="#FFA122"></circle><circle cx="284.6246153846154" cy="243.90671" r="3" fill="#F65F18"></circle><circle cx="293.22769230769234" cy="213.44152000000003" r="3" fill="#C82C0C"></circle><circle cx="293.7653846153846" cy="209.20171999999997" r="3" fill="#C1270A"></circle><circle cx="294.30307692307696" cy="205.90627" r="3" fill="#BC2309"></circle><circle cx="304.78807692307697" cy="200.529" r="3" fill="#B31D07"></circle><circle cx="305.3257692307692" cy="204.55800000000002" r="3" fill="#BA2108"></circle><circle cx="305.8634615384616" cy="210.79649" r="3" fill="#C4290B"></circle><circle cx="306.4011538461538" cy="215.90737" r="3" fill="#CC300D"></circle><circle cx="311.24038461538464" cy="217.13749" r="3" fill="#CE310D"></circle><circle cx="311.7780769230769" cy="217.33299000000002" r="3" fill="#CF320E"></circle><circle cx="312.3157692307692" cy="214.45965" r="3" fill="#CA2E0C"></circle><circle cx="313.1223076923077" cy="211.1132" r="3" fill="#C4290B"></circle><circle cx="315.81076923076927" cy="207.96276" r="3" fill="#BF250A"></circle><circle cx="325.75807692307694" cy="207.41246999999996" r="3" fill="#BE2509"></circle><circle cx="326.2957692307692" cy="208.77434000000002" r="3" fill="#C0260A"></circle><circle cx="326.8334615384615" cy="210.23056000000003" r="3" fill="#C3280B"></circle><circle cx="327.37115384615385" cy="211.67335000000003" r="3" fill="#C52A0B"></circle><circle cx="329.5219230769231" cy="218.01655999999997" r="3" fill="#D0330E"></circle><circle cx="330.0596153846154" cy="223.87476" r="3" fill="#D93C10"></circle><circle cx="330.5973076923077" cy="228.83774" r="3" fill="#E14412"></circle><circle cx="336.51192307692304" cy="233.37827" r="3" fill="#E84C14"></circle><circle cx="341.0823076923077" cy="229.66734" r="3" fill="#E24512"></circle><circle cx="341.62" cy="222.6392" r="3" fill="#D73A10"></circle><circle cx="342.15769230769234" cy="217.52611" r="3" fill="#CF320E"></circle><circle cx="344.0396153846154" cy="212.37800000000001" r="3" fill="#C62B0C"></circle><circle cx="346.7280769230769" cy="206.72788000000003" r="3" fill="#BD2409"></circle><circle cx="347.26576923076925" cy="206.20853000000002" r="3" fill="#BC2309"></circle><circle cx="347.80346153846153" cy="206.97182999999998" r="3" fill="#BD2409"></circle><circle cx="348.3411538461539" cy="207.50001999999998" r="3" fill="#BE250A"></circle><circle cx="348.87884615384615" cy="205.36669" r="3" fill="#BB2209"></circle><circle cx="349.6853846153846" cy="204.694" r="3" fill="#BA2108"></circle><circle cx="366.085" cy="206.21176" r="3" fill="#BC2309"></circle><circle cx="366.6226923076923" cy="209.04787" r="3" fill="#C1270A"></circle><circle cx="367.1603846153846" cy="210.54301999999998" r="3" fill="#C3280B"></circle><circle cx="367.69807692307694" cy="209.74504000000002" r="3" fill="#C2270A"></circle><circle cx="368.2357692307692" cy="205.48127" r="3" fill="#BB2209"></circle><circle cx="368.77346153846156" cy="200.4644" r="3" fill="#B31D07"></circle><circle cx="369.58" cy="194.4073" r="3" fill="#AA1704"></circle><circle cx="370.1176923076923" cy="187.8589" r="3" fill="#A11202"></circle><circle cx="370.6553846153846" cy="188.8041" r="3" fill="#A31302"></circle><circle cx="371.19307692307694" cy="193.14249999999998" r="3" fill="#A81604"></circle><circle cx="371.73076923076917" cy="198.52129999999997" r="3" fill="#B01B06"></circle><circle cx="372.5373076923077" cy="202.9192" r="3" fill="#B71F08"></circle><circle cx="384.3665384615385" cy="207.975" r="3" fill="#BF250A"></circle><circle cx="384.9042307692308" cy="210.10459" r="3" fill="#C3280B"></circle><circle cx="385.44192307692305" cy="210.79581" r="3" fill="#C4290B"></circle><circle cx="385.97961538461544" cy="210.79581" r="3" fill="#C4290B"></circle><circle cx="388.6680769230769" cy="210.79581" r="3" fill="#C4290B"></circle><circle cx="389.20576923076925" cy="211.14703000000003" r="3" fill="#C4290B"></circle><circle cx="389.74346153846153" cy="202.6421" r="3" fill="#B71F08"></circle><circle cx="390.28115384615387" cy="192.77020000000002" r="3" fill="#A81604"></circle><circle cx="390.81884615384615" cy="181.18300000000002" r="3" fill="#9A0E00"></circle><circle cx="400.22846153846154" cy="169.9715" r="3" fill="#920C00"></circle><circle cx="400.7661538461539" cy="174.3915" r="3" fill="#940C00"></circle><circle cx="401.30384615384617" cy="181.82389999999998" r="3" fill="#9B0F00"></circle><circle cx="401.8415384615385" cy="191.08720000000002" r="3" fill="#A61403"></circle><circle cx="402.3792307692308" cy="199.6314" r="3" fill="#B21C06"></circle><circle cx="402.9169230769231" cy="205.85323" r="3" fill="#BC2309"></circle><circle cx="403.4546153846154" cy="208.35053" r="3" fill="#C0260A"></circle><circle cx="403.9923076923077" cy="209.55685" r="3" fill="#C2270A"></circle><circle cx="404.79884615384617" cy="209.49939" r="3" fill="#C2270A"></circle><circle cx="408.5626923076923" cy="209.44209999999998" r="3" fill="#C2270A"></circle><circle cx="409.63807692307694" cy="210.69364" r="3" fill="#C4290B"></circle><circle cx="410.1757692307693" cy="209.61907000000002" r="3" fill="#C2270A"></circle><circle cx="410.7134615384615" cy="208.98904999999996" r="3" fill="#C1260A"></circle><circle cx="411.25115384615384" cy="209.56483999999998" r="3" fill="#C2270A"></circle><circle cx="411.7888461538462" cy="209.80012000000002" r="3" fill="#C2280A"></circle><circle cx="412.3265384615385" cy="209.69505999999998" r="3" fill="#C2270A"></circle><circle cx="412.86423076923074" cy="209.72259999999997" r="3" fill="#C2270A"></circle><circle cx="420.39192307692304" cy="209.72259999999997" r="3" fill="#C2270A"></circle><circle cx="420.92961538461543" cy="207.60117000000002" r="3" fill="#BE250A"></circle><circle cx="421.4673076923077" cy="201.75130000000001" r="3" fill="#B51E07"></circle><circle cx="422.005" cy="188.0187" r="3" fill="#A21202"></circle><circle cx="422.8115384615385" cy="174.05490000000003" r="3" fill="#940C00"></circle><circle cx="430.0703846153846" cy="165.135" r="3" fill="#900C00"></circle><circle cx="430.6080769230769" cy="162.7822" r="3" fill="#900C00"></circle><circle cx="431.14576923076925" cy="175.83990000000003" r="3" fill="#950D00"></circle><circle cx="431.68346153846153" cy="187.02589999999998" r="3" fill="#A01201"></circle><circle cx="432.2211538461538" cy="196.2433" r="3" fill="#AD1905"></circle><circle cx="432.7588461538462" cy="203.03140000000002" r="3" fill="#B71F08"></circle><circle cx="433.5653846153846" cy="207.29449000000002" r="3" fill="#BE2409"></circle><circle cx="439.2111538461538" cy="207.31778000000003" r="3" fill="#BE2409"></circle><circle cx="439.7488461538462" cy="207.59028999999998" r="3" fill="#BE250A"></circle><circle cx="440.28653846153844" cy="208.19888999999998" r="3" fill="#BF260A"></circle><circle cx="440.8242307692308" cy="208.65092" r="3" fill="#C0260A"></circle><circle cx="441.36192307692306" cy="208.91391" r="3" fill="#C1260A"></circle><circle cx="441.89961538461546" cy="209.02644999999998" r="3" fill="#C1270A"></circle><circle cx="451.8469230769231" cy="208.99041000000003" r="3" fill="#C1260A"></circle><circle cx="452.3846153846155" cy="208.80595999999997" r="3" fill="#C0260A"></circle><circle cx="452.9223076923077" cy="208.90456000000003" r="3" fill="#C1260A"></circle><circle cx="453.46" cy="209.05042000000003" r="3" fill="#C1270A"></circle><circle cx="453.9976923076923" cy="208.83061000000004" r="3" fill="#C1260A"></circle><circle cx="454.5353846153847" cy="208.61096999999998" r="3" fill="#C0260A"></circle><circle cx="455.3419230769231" cy="208.02634000000003" r="3" fill="#BF250A"></circle><circle cx="457.4926923076923" cy="207.29380999999998" r="3" fill="#BE2409"></circle><circle cx="458.0303846153846" cy="204.3064" r="3" fill="#B92108"></circle><circle cx="458.5680769230769" cy="199.8779" r="3" fill="#B21C06"></circle><circle cx="459.1057692307693" cy="186.57030000000003" r="3" fill="#A01101"></circle><circle cx="459.6434615384615" cy="173.0485" r="3" fill="#930C00"></circle><circle cx="460.18115384615385" cy="165.61270000000002" r="3" fill="#900C00"></circle><circle cx="460.71884615384613" cy="161.1281" r="3" fill="#900C00"></circle><circle cx="461.2565384615385" cy="174.71110000000002" r="3" fill="#950C00"></circle><circle cx="461.7942307692308" cy="186.26599999999996" r="3" fill="#A01101"></circle><circle cx="462.3319230769231" cy="196.262" r="3" fill="#AD1905"></circle><circle cx="462.8696153846154" cy="203.0399" r="3" fill="#B71F08"></circle><circle cx="464.48269230769233" cy="208.40459" r="3" fill="#C0260A"></circle><circle cx="469.59076923076924" cy="208.31618999999998" r="3" fill="#C0260A"></circle><circle cx="473.08576923076924" cy="208.04164" r="3" fill="#BF250A"></circle><circle cx="473.6234615384616" cy="207.65353" r="3" fill="#BF250A"></circle><circle cx="474.16115384615387" cy="207.36061999999995" r="3" fill="#BE2409"></circle><circle cx="474.69884615384615" cy="207.39087999999998" r="3" fill="#BE2509"></circle><circle cx="475.5053846153846" cy="207.4208" r="3" fill="#BE2509"></circle><circle cx="476.04307692307697" cy="207.86144000000002" r="3" fill="#BF250A"></circle><circle cx="476.58076923076925" cy="208.41019999999997" r="3" fill="#C0260A"></circle><circle cx="477.1184615384616" cy="206.62162999999998" r="3" fill="#BD2409"></circle><circle cx="477.65615384615387" cy="203.76749999999998" r="3" fill="#B82008"></circle><circle cx="478.19384615384615" cy="199.8133" r="3" fill="#B21C06"></circle><circle cx="478.73153846153855" cy="195.4545" r="3" fill="#AC1805"></circle><circle cx="489.48538461538465" cy="195.2505" r="3" fill="#AB1805"></circle><circle cx="490.0230769230769" cy="196.69039999999998" r="3" fill="#AD1905"></circle><circle cx="490.5607692307692" cy="199.9221" r="3" fill="#B21C06"></circle><circle cx="491.0984615384616" cy="203.98170000000002" r="3" fill="#B92108"></circle><circle cx="491.6361538461539" cy="207.60814" r="3" fill="#BF250A"></circle><circle cx="492.17384615384617" cy="209.41405" r="3" fill="#C1270A"></circle><circle cx="493.24923076923085" cy="210.55186" r="3" fill="#C3280B"></circle><circle cx="494.0557692307692" cy="209.82680999999997" r="3" fill="#C2280A"></circle><circle cx="494.5934615384616" cy="209.28162000000003" r="3" fill="#C1270A"></circle><circle cx="495.13115384615384" cy="208.90014" r="3" fill="#C1260A"></circle><circle cx="495.6688461538462" cy="208.85866000000004" r="3" fill="#C1260A"></circle><circle cx="496.2065384615385" cy="208.74" r="3" fill="#C0260A"></circle><circle cx="496.74423076923085" cy="209.11672000000002" r="3" fill="#C1270A"></circle><circle cx="497.5507692307692" cy="209.24813000000003" r="3" fill="#C1270A"></circle><circle cx="506.96038461538456" cy="200.8928" r="3" fill="#B41D07"></circle><circle cx="508.5734615384616" cy="192.1769" r="3" fill="#A71503"></circle><circle cx="509.38" cy="183.461" r="3" fill="#9C1000"></circle><circle cx="512.6061538461539" cy="174.93719999999996" r="3" fill="#950C00"></circle><circle cx="513.1438461538462" cy="183.23149999999998" r="3" fill="#9C0F00"></circle><circle cx="513.6815384615385" cy="190.9359" r="3" fill="#A51403"></circle><circle cx="514.2192307692308" cy="197.7886" r="3" fill="#AF1A06"></circle><circle cx="514.7569230769232" cy="203.83210000000003" r="3" fill="#B82008"></circle><circle cx="515.2946153846154" cy="209.22789999999998" r="3" fill="#C1270A"></circle><circle cx="515.8323076923077" cy="209.27567000000002" r="3" fill="#C1270A"></circle><circle cx="516.37" cy="209.09818999999996" r="3" fill="#C1270A"></circle><circle cx="516.9076923076924" cy="207.73683000000003" r="3" fill="#BF250A"></circle><circle cx="517.4453846153847" cy="205.19414" r="3" fill="#BB2209"></circle><circle cx="518.5207692307692" cy="202.1015" r="3" fill="#B61E07"></circle><circle cx="519.3273076923077" cy="198.68789999999998" r="3" fill="#B01B06"></circle><circle cx="519.865" cy="197.81580000000002" r="3" fill="#AF1A06"></circle><circle cx="520.4026923076923" cy="199.0075" r="3" fill="#B11B06"></circle><circle cx="520.9403846153846" cy="201.14610000000002" r="3" fill="#B41D07"></circle><circle cx="521.478076923077" cy="204.0293" r="3" fill="#B92108"></circle><circle cx="522.0157692307693" cy="206.65087000000003" r="3" fill="#BD2409"></circle><circle cx="522.8223076923077" cy="207.96922" r="3" fill="#BF250A"></circle><circle cx="526.5861538461539" cy="208.21078999999997" r="3" fill="#BF260A"></circle><circle cx="527.9303846153846" cy="208.04979999999998" r="3" fill="#BF250A"></circle><circle cx="530.8876923076924" cy="207.55306000000002" r="3" fill="#BE250A"></circle><circle cx="531.4253846153847" cy="207.74533" r="3" fill="#BF250A"></circle><circle cx="531.963076923077" cy="208.06799000000004" r="3" fill="#BF250A"></circle><circle cx="532.5007692307692" cy="208.44981" r="3" fill="#C0260A"></circle><circle cx="533.0384615384617" cy="208.88994000000002" r="3" fill="#C1260A"></circle><circle cx="533.5761538461539" cy="209.25867" r="3" fill="#C1270A"></circle><circle cx="534.1138461538462" cy="208.94774" r="3" fill="#C1260A"></circle><circle cx="535.1892307692308" cy="208.46103000000002" r="3" fill="#C0260A"></circle><circle cx="536.2646153846154" cy="207.88949" r="3" fill="#BF250A"></circle><circle cx="536.8023076923076" cy="207.45174000000003" r="3" fill="#BE250A"></circle><circle cx="537.3400000000001" cy="207.76895999999996" r="3" fill="#BF250A"></circle><circle cx="537.8776923076924" cy="208.20551999999998" r="3" fill="#BF260A"></circle><circle cx="538.4153846153846" cy="208.63834000000003" r="3" fill="#C0260A"></circle><circle cx="538.9530769230769" cy="208.93465" r="3" fill="#C1260A"></circle><circle cx="539.4907692307692" cy="201.1682" r="3" fill="#B41D07"></circle><circle cx="540.2973076923078" cy="192.1463" r="3" fill="#A71503"></circle><circle cx="540.835" cy="181.88510000000002" r="3" fill="#9B0F00"></circle><circle cx="549.1692307692308" cy="171.43009999999998" r="3" fill="#930C00"></circle><circle cx="549.7069230769231" cy="177.1914" r="3" fill="#960D00"></circle><circle cx="550.2446153846154" cy="183.96079999999998" r="3" fill="#9D1000"></circle><circle cx="550.7823076923077" cy="191.7417" r="3" fill="#A61503"></circle><circle cx="551.32" cy="199.32879999999997" r="3" fill="#B11C06"></circle><circle cx="551.8576923076922" cy="206.03666" r="3" fill="#BC2309"></circle><circle cx="552.3953846153846" cy="207.60389" r="3" fill="#BF250A"></circle><circle cx="552.9330769230769" cy="208.78641" r="3" fill="#C0260A"></circle><circle cx="554.0084615384616" cy="209.16788999999997" r="3" fill="#C1270A"></circle><circle cx="556.1592307692308" cy="209.16908" r="3" fill="#C1270A"></circle><circle cx="557.5034615384616" cy="209.08136" r="3" fill="#C1270A"></circle><circle cx="558.041153846154" cy="208.94927" r="3" fill="#C1260A"></circle><circle cx="558.5788461538463" cy="209.13371999999998" r="3" fill="#C1270A"></circle><circle cx="559.1165384615385" cy="209.1055" r="3" fill="#C1270A"></circle><circle cx="559.6542307692307" cy="209.28264000000001" r="3" fill="#C1270A"></circle><circle cx="560.1919230769232" cy="209.18455" r="3" fill="#C1270A"></circle><circle cx="560.7296153846155" cy="208.81259" r="3" fill="#C0260A"></circle><circle cx="561.2673076923077" cy="208.18903" r="3" fill="#BF250A"></circle><circle cx="562.0738461538461" cy="207.42233" r="3" fill="#BE2509"></circle><circle cx="562.6115384615385" cy="208.06833" r="3" fill="#BF250A"></circle><circle cx="567.7196153846154" cy="209.33907999999997" r="3" fill="#C1270A"></circle><circle cx="568.2573076923077" cy="210.55491999999998" r="3" fill="#C3280B"></circle><circle cx="568.795" cy="211.85423" r="3" fill="#C62A0B"></circle><circle cx="569.3326923076924" cy="211.5586" r="3" fill="#C52A0B"></circle><circle cx="569.8703846153846" cy="211.39013000000003" r="3" fill="#C52A0B"></circle><circle cx="570.4080769230769" cy="211.00745999999998" r="3" fill="#C4290B"></circle><circle cx="570.9457692307692" cy="210.43965999999998" r="3" fill="#C3280B"></circle><circle cx="571.7523076923077" cy="209.29233000000002" r="3" fill="#C1270A"></circle><circle cx="572.5588461538462" cy="207.38459" r="3" fill="#BE2509"></circle><circle cx="578.7423076923077" cy="205.10573999999997" r="3" fill="#BA2209"></circle><circle cx="579.2800000000001" cy="202.23239999999998" r="3" fill="#B61F07"></circle><circle cx="579.8176923076924" cy="200.63099999999997" r="3" fill="#B31D07"></circle><circle cx="580.3553846153847" cy="201.91960000000003" r="3" fill="#B51E07"></circle><circle cx="580.893076923077" cy="203.30679999999998" r="3" fill="#B82008"></circle><circle cx="581.4307692307693" cy="205.77231" r="3" fill="#BC2309"></circle><circle cx="581.9684615384616" cy="207.86619999999996" r="3" fill="#BF250A"></circle><circle cx="582.5061538461539" cy="209.48918999999998" r="3" fill="#C2270A"></circle><circle cx="583.0438461538462" cy="210.05512000000002" r="3" fill="#C3280B"></circle><circle cx="583.8503846153847" cy="210.28802" r="3" fill="#C3280B"></circle><circle cx="585.1946153846153" cy="210.01143" r="3" fill="#C2280B"></circle><circle cx="586.2700000000001" cy="209.61957999999998" r="3" fill="#C2270A"></circle><circle cx="586.8076923076924" cy="209.12368999999998" r="3" fill="#C1270A"></circle><circle cx="587.3453846153845" cy="208.88824" r="3" fill="#C1260A"></circle><circle cx="587.883076923077" cy="209.04668" r="3" fill="#C1270A"></circle><circle cx="588.4207692307693" cy="209.15649999999997" r="3" fill="#C1270A"></circle><circle cx="588.9584615384615" cy="210.38798" r="3" fill="#C3280B"></circle><circle cx="589.4961538461538" cy="210.79682999999997" r="3" fill="#C4290B"></circle><circle cx="590.0338461538463" cy="211.0894" r="3" fill="#C4290B"></circle><circle cx="590.5715384615385" cy="211.27725" r="3" fill="#C5290B"></circle><circle cx="593.7976923076923" cy="211.41767000000002" r="3" fill="#C52A0B"></circle><circle cx="595.4107692307692" cy="211.09433" r="3" fill="#C4290B"></circle><circle cx="596.755" cy="211.44198" r="3" fill="#C52A0B"></circle><circle cx="599.7123076923077" cy="211.65770999999998" r="3" fill="#C52A0B"></circle><circle cx="600.25" cy="212.97589000000002" r="3" fill="#C72C0C"></circle><circle cx="600.7876923076923" cy="219.59671" r="3" fill="#D2350E"></circle><circle cx="601.3253846153846" cy="214.82073" r="3" fill="#CA2E0D"></circle><circle cx="601.863076923077" cy="216.56612" r="3" fill="#CD310D"></circle><circle cx="602.4007692307692" cy="216.45884999999998" r="3" fill="#CD310D"></circle><circle cx="602.9384615384615" cy="216.31418" r="3" fill="#CD300D"></circle><circle cx="603.4761538461539" cy="216.60182000000003" r="3" fill="#CD310D"></circle><circle cx="604.0138461538461" cy="217.38415999999998" r="3" fill="#CF320E"></circle><circle cx="604.5515384615385" cy="218.01741" r="3" fill="#D0330E"></circle><circle cx="605.0892307692308" cy="218.57297" r="3" fill="#D1340E"></circle><circle cx="605.626923076923" cy="217.90622999999997" r="3" fill="#D0330E"></circle><circle cx="606.1646153846154" cy="217.31021" r="3" fill="#CF320E"></circle><circle cx="606.7023076923077" cy="214.85523999999998" r="3" fill="#CA2E0D"></circle><circle cx="607.24" cy="214.36139" r="3" fill="#CA2E0C"></circle><circle cx="607.7776923076923" cy="213.29208999999997" r="3" fill="#C82C0C"></circle><circle cx="608.3153846153847" cy="212.16923999999997" r="3" fill="#C62B0B"></circle><circle cx="608.853076923077" cy="210.48623999999995" r="3" fill="#C3280B"></circle><circle cx="609.3907692307693" cy="208.62984" r="3" fill="#C0260A"></circle><circle cx="609.9284615384615" cy="217.3131" r="3" fill="#CF320E"></circle><circle cx="610.4661538461538" cy="220.16043000000002" r="3" fill="#D3360F"></circle><circle cx="611.0038461538462" cy="229.46844" r="3" fill="#E24512"></circle><circle cx="611.5415384615385" cy="235.06195" r="3" fill="#EA4F14"></circle><circle cx="612.0792307692308" cy="255.28107" r="3" fill="#FF761B"></circle><circle cx="612.6169230769231" cy="270.03231" r="3" fill="#FF9420"></circle><circle cx="613.1546153846155" cy="271.6366" r="3" fill="#FF9721"></circle><circle cx="613.6923076923077" cy="272.81181" r="3" fill="#FF9A21"></circle><circle cx="614.23" cy="273.87414" r="3" fill="#FF9C22"></circle><circle cx="615.0365384615384" cy="274.01439" r="3" fill="#FF9C22"></circle><circle cx="616.1119230769232" cy="275.27307" r="3" fill="#FF9F22"></circle><circle cx="616.9184615384615" cy="276.49384" r="3" fill="#FFA122"></circle><circle cx="617.4561538461538" cy="277.60326" r="3" fill="#FFA323"></circle><circle cx="621.22" cy="278.74515" r="3" fill="#FFA623"></circle><circle cx="621.7576923076923" cy="283.86759" r="3" fill="#FFB025"></circle><circle cx="622.2953846153847" cy="288.91641999999996" r="3" fill="#FEBA27"></circle><circle cx="622.8330769230769" cy="281.66184" r="3" fill="#FFAC24"></circle><circle cx="623.3707692307692" cy="286.97281000000004" r="3" fill="#FFB626"></circle><circle cx="623.9084615384616" cy="286.05039000000005" r="3" fill="#FFB426"></circle><circle cx="624.446153846154" cy="286.25762" r="3" fill="#FFB526"></circle><circle cx="624.9838461538462" cy="286.50191" r="3" fill="#FFB526"></circle><circle cx="625.5215384615385" cy="286.61598000000004" r="3" fill="#FFB626"></circle><circle cx="626.0592307692308" cy="286.66919" r="3" fill="#FFB626"></circle><circle cx="626.5969230769232" cy="286.69197" r="3" fill="#FFB626"></circle><circle cx="627.1346153846155" cy="286.68449" r="3" fill="#FFB626"></circle><circle cx="627.6723076923078" cy="286.56345000000005" r="3" fill="#FFB526"></circle><circle cx="628.4788461538461" cy="285.72416000000004" r="3" fill="#FFB426"></circle><circle cx="634.1246153846155" cy="284.6963400000001" r="3" fill="#FFB226"></circle><circle cx="638.9638461538462" cy="283.10242" r="3" fill="#FFAF25"></circle><circle cx="639.5015384615385" cy="281.14555" r="3" fill="#FFAB24"></circle><circle cx="640.0392307692307" cy="297.90108999999995" r="3" fill="#F2CB2C"></circle><circle cx="640.5769230769232" cy="302.47273" r="3" fill="#EAD32E"></circle><circle cx="641.1146153846155" cy="307.60928" r="3" fill="#E0DB32"></circle><circle cx="641.6523076923078" cy="322.27705000000003" r="3" fill="#BCEF3F"></circle><circle cx="642.19" cy="331.12827000000004" r="3" fill="#A2F84A"></circle><circle cx="642.7276923076923" cy="331.85791" r="3" fill="#A0F84B"></circle><circle cx="643.2653846153846" cy="332.73409000000004" r="3" fill="#9DF94C"></circle><circle cx="643.8030769230769" cy="340.72357999999997" r="3" fill="#84FD5A"></circle><circle cx="644.3407692307692" cy="341.58497" r="3" fill="#81FD5B"></circle><circle cx="644.8784615384617" cy="345.45689" r="3" fill="#75FE63"></circle><circle cx="645.416153846154" cy="346.09269" r="3" fill="#73FE64"></circle><circle cx="645.9538461538461" cy="346.52755" r="3" fill="#72FE65"></circle><circle cx="646.4915384615384" cy="346.66746" r="3" fill="#72FE65"></circle><circle cx="647.0292307692307" cy="346.63516000000004" r="3" fill="#72FE65"></circle><circle cx="647.5669230769231" cy="346.64213" r="3" fill="#72FE65"></circle><circle cx="648.1046153846154" cy="346.65573" r="3" fill="#72FE65"></circle><circle cx="648.6423076923078" cy="346.66916" r="3" fill="#71FE65"></circle><circle cx="649.18" cy="349.62852" r="3" fill="#68FD6C"></circle><circle cx="649.7176923076923" cy="349.7601" r="3" fill="#68FD6C"></circle><circle cx="650.2553846153846" cy="349.83881" r="3" fill="#68FD6C"></circle><circle cx="652.675" cy="349.89117" r="3" fill="#68FD6C"></circle><circle cx="654.0192307692307" cy="349.81263" r="3" fill="#68FD6C"></circle><circle cx="654.5569230769231" cy="349.64909" r="3" fill="#68FD6C"></circle><circle cx="655.0946153846154" cy="349.41992999999997" r="3" fill="#69FD6B"></circle><circle cx="660.2026923076924" cy="348.73278999999997" r="3" fill="#6BFD6A"></circle><circle cx="660.7403846153846" cy="350.85541" r="3" fill="#65FD6E"></circle><circle cx="661.278076923077" cy="350.43296" r="3" fill="#66FD6D"></circle><circle cx="661.8157692307693" cy="347.52511" r="3" fill="#6FFE67"></circle><circle cx="662.3534615384616" cy="353.01883000000004" r="3" fill="#5EFC73"></circle><circle cx="662.8911538461539" cy="353.50010000000003" r="3" fill="#5DFC75"></circle><circle cx="663.4288461538463" cy="353.84027" r="3" fill="#5CFC75"></circle><circle cx="663.9665384615386" cy="354.15188000000006" r="3" fill="#5BFC76"></circle><circle cx="664.5042307692308" cy="354.46706" r="3" fill="#5AFC77"></circle><circle cx="665.041923076923" cy="354.53744" r="3" fill="#5AFB77"></circle><circle cx="665.5796153846154" cy="352.24363" r="3" fill="#61FC72"></circle><circle cx="666.1173076923077" cy="352.34562999999997" r="3" fill="#60FC72"></circle><circle cx="666.6550000000001" cy="352.44729" r="3" fill="#60FC72"></circle><circle cx="667.1926923076924" cy="352.36501" r="3" fill="#60FC72"></circle><circle cx="667.7303846153845" cy="351.693" r="3" fill="#62FD70"></circle><circle cx="668.268076923077" cy="340.95189" r="3" fill="#83FD5A"></circle><circle cx="668.8057692307693" cy="330.00321" r="3" fill="#A5F749"></circle><circle cx="669.6123076923077" cy="320.82167999999996" r="3" fill="#C0EE3D"></circle><circle cx="670.1500000000001" cy="315.57752" r="3" fill="#CDE738"></circle><circle cx="670.6876923076924" cy="326.59981" r="3" fill="#AFF444"></circle><circle cx="671.2253846153847" cy="336.41782" r="3" fill="#92FB52"></circle><circle cx="671.7630769230769" cy="347.76107" r="3" fill="#6EFE68"></circle><circle cx="672.3007692307692" cy="359.58558999999997" r="3" fill="#4CF884"></circle><circle cx="672.8384615384616" cy="366.86589100000003" r="3" fill="#3BF099"></circle><circle cx="673.3761538461539" cy="367.152171" r="3" fill="#3AF09A"></circle><circle cx="673.9138461538462" cy="368.20734400000003" r="3" fill="#38EE9D"></circle><circle cx="674.4515384615385" cy="368.779564" r="3" fill="#37ED9F"></circle><circle cx="674.9892307692307" cy="368.857713" r="3" fill="#37ED9F"></circle><circle cx="675.526923076923" cy="368.891237" r="3" fill="#37ED9F"></circle><circle cx="676.0646153846154" cy="368.95787700000005" r="3" fill="#37ED9F"></circle><circle cx="676.8711538461538" cy="369.024432" r="3" fill="#36ED9F"></circle><circle cx="677.4088461538462" cy="369.068751" r="3" fill="#36ED9F"></circle><circle cx="677.9465384615385" cy="369.113053" r="3" fill="#36EDA0"></circle><circle cx="678.4842307692307" cy="369.102003" r="3" fill="#36EDA0"></circle><circle cx="679.021923076923" cy="369.04671899999994" r="3" fill="#36ED9F"></circle><circle cx="679.5596153846154" cy="367.90083400000003" r="3" fill="#39EF9C"></circle><circle cx="680.0973076923077" cy="367.79026600000003" r="3" fill="#39EF9C"></circle><circle cx="680.635" cy="367.779335" r="3" fill="#39EF9C"></circle><circle cx="681.1726923076923" cy="367.768421" r="3" fill="#39EF9C"></circle><circle cx="681.7103846153847" cy="367.807266" r="3" fill="#39EF9C"></circle><circle cx="682.248076923077" cy="367.895768" r="3" fill="#39EF9C"></circle><circle cx="682.7857692307692" cy="367.929003" r="3" fill="#39EF9C"></circle><circle cx="683.3234615384615" cy="368.733086" r="3" fill="#37ED9E"></circle><circle cx="683.8611538461539" cy="368.336765" r="3" fill="#38EE9D"></circle><circle cx="684.6676923076924" cy="367.25782599999997" r="3" fill="#3AF09A"></circle><circle cx="685.2053846153847" cy="366.174467" r="3" fill="#3CF197"></circle><circle cx="685.743076923077" cy="367.389899" r="3" fill="#3AEF9A"></circle><circle cx="686.2807692307694" cy="367.81172000000004" r="3" fill="#39EF9C"></circle><circle cx="686.8184615384616" cy="368.604566" r="3" fill="#37EE9E"></circle><circle cx="687.3561538461538" cy="369.5311" r="3" fill="#36ECA1"></circle><circle cx="687.8938461538461" cy="371.122997" r="3" fill="#33EAA6"></circle><circle cx="688.4315384615385" cy="371.78392299999996" r="3" fill="#32E9A8"></circle><circle cx="688.9692307692308" cy="372.37831099999994" r="3" fill="#31E7AA"></circle><circle cx="689.5069230769232" cy="372.462682" r="3" fill="#30E7AA"></circle><circle cx="690.0446153846154" cy="372.483745" r="3" fill="#30E7AA"></circle><circle cx="690.5823076923077" cy="372.504808" r="3" fill="#30E7AA"></circle><circle cx="691.1200000000001" cy="372.499555" r="3" fill="#30E7AA"></circle><circle cx="694.615" cy="372.42062400000003" r="3" fill="#30E7AA"></circle><circle cx="695.4215384615385" cy="372.21013" r="3" fill="#31E8A9"></circle><circle cx="697.5723076923078" cy="371.894389" r="3" fill="#31E8A8"></circle><circle cx="698.1100000000001" cy="371.547283" r="3" fill="#32E9A7"></circle><circle cx="698.6476923076923" cy="370.07115600000003" r="3" fill="#35EBA3"></circle><circle cx="699.1853846153846" cy="369.65435" r="3" fill="#35ECA1"></circle><circle cx="699.723076923077" cy="368.632769" r="3" fill="#37EE9E"></circle><circle cx="700.2607692307693" cy="366.897256" r="3" fill="#3BF099"></circle><circle cx="700.7984615384615" cy="366.559959" r="3" fill="#3BF098"></circle><circle cx="701.3361538461538" cy="368.03737800000005" r="3" fill="#38EE9C"></circle><circle cx="701.8738461538461" cy="370.01066999999995" r="3" fill="#35EBA2"></circle><circle cx="702.4115384615385" cy="371.36312200000003" r="3" fill="#32E9A7"></circle><circle cx="702.9492307692308" cy="372.792244" r="3" fill="#30E7AB"></circle><circle cx="703.4869230769231" cy="374.417087" r="3" fill="#2EE4B0"></circle><circle cx="704.0246153846153" cy="375" r="3" fill="#2CE2B3"></circle><circle cx="704.5623076923077" cy="375" r="3" fill="#2CE1B4"></circle><circle cx="705.1" cy="375" r="3" fill="#2CE1B5"></circle><circle cx="705.6376923076923" cy="375" r="3" fill="#2CE1B5"></circle><circle cx="706.1753846153846" cy="375" r="3" fill="#2CE1B5"></circle><circle cx="706.713076923077" cy="375" r="3" fill="#2CE1B4"></circle><circle cx="707.2507692307692" cy="375" r="3" fill="#2CE1B4"></circle><circle cx="707.7884615384615" cy="375" r="3" fill="#2CE1B4"></circle><circle cx="708.3261538461538" cy="375" r="3" fill="#2BE1B5"></circle><circle cx="708.8638461538461" cy="375" r="3" fill="#2BE1B5"></circle><circle cx="709.4015384615385" cy="375" r="3" fill="#2CE2B4"></circle><circle cx="709.9392307692308" cy="375" r="3" fill="#2CE2B4"></circle><circle cx="710.4769230769231" cy="375" r="3" fill="#2CE1B5"></circle><circle cx="711.0146153846154" cy="375" r="3" fill="#2CE1B5"></circle><circle cx="711.5523076923077" cy="375" r="3" fill="#2BE0B6"></circle><circle cx="712.09" cy="375" r="3" fill="#2BDFB7"></circle><circle cx="712.6276923076923" cy="375" r="3" fill="#2BDFB8"></circle><circle cx="713.1653846153846" cy="375" r="3" fill="#2ADFB8"></circle><circle cx="714.2407692307693" cy="375" r="3" fill="#2BDFB8"></circle><circle cx="715.585" cy="375" r="3" fill="#2BDFB7"></circle><circle cx="716.3915384615385" cy="375" r="3" fill="#2BE0B7"></circle><circle cx="716.9292307692308" cy="375" r="3" fill="#2BE0B6"></circle><circle cx="717.4669230769231" cy="375" r="3" fill="#2BDFB7"></circle><circle cx="718.0046153846154" cy="375" r="3" fill="#2BDFB8"></circle><circle cx="718.5423076923078" cy="375" r="3" fill="#2ADFB8"></circle><circle cx="719.08" cy="375" r="3" fill="#2ADFB8"></circle><circle cx="719.6176923076923" cy="375" r="3" fill="#2ADFB8"></circle><circle cx="720.1553846153846" cy="375" r="3" fill="#2ADEB9"></circle><circle cx="720.6930769230769" cy="375" r="3" fill="#2ADEB9"></circle><circle cx="721.2307692307693" cy="375" r="3" fill="#2ADFB8"></circle><circle cx="721.7684615384616" cy="375" r="3" fill="#2BDFB8"></circle><circle cx="727.4142307692309" cy="375" r="3" fill="#2BDFB7"></circle><circle cx="727.9519230769231" cy="375" r="3" fill="#2BE0B6"></circle><circle cx="728.4896153846154" cy="375" r="3" fill="#2BE1B5"></circle><circle cx="729.0273076923077" cy="375" r="3" fill="#2BE1B5"></circle><circle cx="729.565" cy="360.470236" r="3" fill="#4AF787"></circle><circle cx="730.1026923076923" cy="344.74714" r="3" fill="#77FE61"></circle><circle cx="730.6403846153846" cy="329.06906000000004" r="3" fill="#A8F647"></circle><circle cx="731.1780769230769" cy="313.2186" r="3" fill="#D3E436"></circle><circle cx="731.7157692307692" cy="330.27997000000005" r="3" fill="#A4F749"></circle><circle cx="732.2534615384616" cy="344.10062999999997" r="3" fill="#79FE60"></circle><circle cx="732.7911538461539" cy="356.17437" r="3" fill="#55FB7B"></circle><circle cx="733.3288461538461" cy="366.71617200000003" r="3" fill="#3BF098"></circle><circle cx="733.8665384615384" cy="375" r="3" fill="#2BE0B6"></circle><circle cx="734.4042307692308" cy="375" r="3" fill="#2ADFB8"></circle><circle cx="734.9419230769231" cy="375" r="3" fill="#2ADEBA"></circle><circle cx="735.4796153846154" cy="375" r="3" fill="#29DDBB"></circle><circle cx="736.0173076923078" cy="375" r="3" fill="#29DCBC"></circle><circle cx="736.555" cy="375" r="3" fill="#29DCBD"></circle><circle cx="737.0926923076923" cy="375" r="3" fill="#29DCBD"></circle><circle cx="737.6303846153846" cy="375" r="3" fill="#29DBBE"></circle><circle cx="738.1680769230769" cy="375" r="3" fill="#29DBBE"></circle><circle cx="738.7057692307692" cy="375" r="3" fill="#28DBBE"></circle><circle cx="739.2434615384616" cy="375" r="3" fill="#28DABF"></circle><circle cx="739.7811538461539" cy="375" r="3" fill="#28DABF"></circle><circle cx="740.3188461538462" cy="375" r="3" fill="#28DABF"></circle><circle cx="741.1253846153846" cy="375" r="3" fill="#3198F7"></circle><circle cx="742.4696153846154" cy="375" r="3" fill="#4B51D3"></circle><circle cx="743.0073076923077" cy="375" r="3" fill="#23171B"></circle><circle cx="744.3515384615386" cy="375" r="3" fill="#2DE3B2"></circle></g></svg>