<svg xmlns:xlink="http://www.w3.org/1999/xlink" xmlns="http://www.w3.org/2000/svg" class="plot-4634b6c5faa9e" fill="currentColor" font-family="system-ui, sans-serif" font-size="10" text-anchor="middle" width="800" height="400" viewBox="0 0 800 400"><style fill="#212529">
        .plot-4634b6c5faa9e {
          display: block;
          background: white;
          height: auto;
          height: intrinsic;
          max-width: 100%;
        }
        .plot-4634b6c5faa9e text,
        .plot-4634b6c5faa9e tspan {
          white-space: pre;
        }
      </style><g aria-label="y-axis" aria-description="↑ Score" transform="translate(40,0)" fill="none" text-anchor="end" font-variant="tabular-nums"><g class="tick" opacity="1" transform="translate(0,365)" fill="none"><line stroke="#212529" x2="-6" fill="none"></line><line stroke="#212529" x2="740" stroke-opacity="0.1" fill="none"></line><text fill="#212529" x="-9" dy="0.32em">0.0</text></g><g class="tick" opacity="1" transform="translate(0,331)" fill="none"><line stroke="#212529" x2="-6" fill="none"></line><line stroke="#212529" x2="740" stroke-opacity="0.1" fill="none"></line><text fill="#212529" x="-9" dy="0.32em">0.2</text></g><g class="tick" opacity="1" transform="translate(0,297)" fill="none"><line stroke="#212529" x2="-6" fill="none"></line><line stroke="#212529" x2="740" stroke-opacity="0.1" fill="none"></line><text fill="#212529" x="-9" dy="0.32em">0.4</text></g><g class="tick" opacity="1" transform="translate(0,263)" fill="none"><line stroke="#212529" x2="-6" fill="none"></line><line stroke="#212529" x2="740" stroke-opacity="0.1" fill="none"></line><text fill="#212529" x="-9" dy="0.32em">0.6</text></g><g class="tick" opacity="1" transform="translate(0,229)" fill="none"><line stroke="#212529" x2="-6" fill="none"></line><line stroke="#212529" x2="740" stroke-opacity="0.1" fill="none"></line><text fill="#212529" x="-9" dy="0.32em">0.8</text></g><g class="tick" opacity="1" transform="translate(0,195)" fill="none"><line stroke="#212529" x2="-6" fill="none"></line><line stroke="#212529" x2="740" stroke-opacity="0.1" fill="none"></line><text fill="#212529" x="-9" dy="0.32em">1.0</text></g><g class="tick" opacity="1" transform="translate(0,161)" fill="none"><line stroke="#212529" x2="-6" fill="none"></line><line stroke="#212529" x2="740" stroke-opacity="0.1" fill="none"></line><text fill="#212529" x="-9" dy="0.32em">1.2</text></g><g class="tick" opacity="1" transform="translate(0,127.00000000000001)" fill="none"><line stroke="#212529" x2="-6" fill="none"></line><line stroke="#212529" x2="740" stroke-opacity="0.1" fill="none"></line><text fill="#212529" x="-9" dy="0.32em">1.4</text></g><g class="tick" opacity="1" transform="translate(0,92.99999999999999)" fill="none"><line stroke="#212529" x2="-6" fill="none"></line><line stroke="#212529" x2="740" stroke-opacity="0.1" fill="none"></line><text fill="#212529" x="-9" dy="0.32em">1.6</text></g><g class="tick" opacity="1" transform="translate(0,58.99999999999999)" fill="none"><line stroke="#212529" x2="-6" fill="none"></line><line stroke="#212529" x2="740" stroke-opacity="0.1" fill="none"></line><text fill="#212529" x="-9" dy="0.32em">1.8</text></g><g class="tick" opacity="1" transform="translate(0,25)" fill="none"><line stroke="#212529" x2="-6" fill="none"></line><line stroke="#212529" x2="740" stroke-opacity="0.1" fill="none"></line><text fill="#212529" x="-9" dy="0.32em">2.0</text></g><text fill="#212529" font-variant="normal" transform="translate(-40,20)" dy="-1em" text-anchor="start">↑ Score</text></g><g aria-label="x-axis" aria-description="Threshold →" transform="translate(0,370)" fill="none" text-anchor="middle" font-variant="tabular-nums"><g class="tick" opacity="1" transform="translate(45,0)" fill="none"><line stroke="#212529" y2="6" fill="none"></line><line stroke="#212529" y2="-350" stroke-opacity="0.1" fill="none"></line><text fill="#212529" y="9" dy="0.71em">0.000</text></g><g class="tick" opacity="1" transform="translate(101.15384615384616,0)" fill="none"><line stroke="#212529" y2="6" fill="none"></line><line stroke="#212529" y2="-350" stroke-opacity="0.1" fill="none"></line><text fill="#212529" y="9" dy="0.71em">0.002</text></g><g class="tick" opacity="1" transform="translate(157.30769230769232,0)" fill="none"><line stroke="#212529" y2="6" fill="none"></line><line stroke="#212529" y2="-350" stroke-opacity="0.1" fill="none"></line><text fill="#212529" y="9" dy="0.71em">0.004</text></g><g class="tick" opacity="1" transform="translate(213.46153846153848,0)" fill="none"><line stroke="#212529" y2="6" fill="none"></line><line stroke="#212529" y2="-350" stroke-opacity="0.1" fill="none"></line><text fill="#212529" y="9" dy="0.71em">0.006</text></g><g class="tick" opacity="1" transform="translate(269.61538461538464,0)" fill="none"><line stroke="#212529" y2="6" fill="none"></line><line stroke="#212529" y2="-350" stroke-opacity="0.1" fill="none"></line><text fill="#212529" y="9" dy="0.71em">0.008</text></g><g class="tick" opacity="1" transform="translate(325.7692307692308,0)" fill="none"><line stroke="#212529" y2="6" fill="none"></line><line stroke="#212529" y2="-350" stroke-opacity="0.1" fill="none"></line><text fill="#212529" y="9" dy="0.71em">0.010</text></g><g class="tick" opacity="1" transform="translate(381.92307692307696,0)" fill="none"><line stroke="#212529" y2="6" fill="none"></line><line stroke="#212529" y2="-350" stroke-opacity="0.1" fill="none"></line><text fill="#212529" y="9" dy="0.71em">0.012</text></g><g class="tick" opacity="1" transform="translate(438.07692307692315,0)" fill="none"><line stroke="#212529" y2="6" fill="none"></line><line stroke="#212529" y2="-350" stroke-opacity="0.1" fill="none"></line><text fill="#212529" y="9" dy="0.71em">0.014</text></g><g class="tick" opacity="1" transform="translate(494.2307692307693,0)" fill="none"><line stroke="#212529" y2="6" fill="none"></line><line stroke="#212529" y2="-350" stroke-opacity="0.1" fill="none"></line><text fill="#212529" y="9" dy="0.71em">0.016</text></g><g class="tick" opacity="1" transform="translate(550.3846153846154,0)" fill="none"><line stroke="#212529" y2="6" fill="none"></line><line stroke="#212529" y2="-350" stroke-opacity="0.1" fill="none"></line><text fill="#212529" y="9" dy="0.71em">0.018</text></g><g class="tick" opacity="1" transform="translate(606.5384615384615,0)" fill="none"><line stroke="#212529" y2="6" fill="none"></line><line stroke="#212529" y2="-350" stroke-opacity="0.1" fill="none"></line><text fill="#212529" y="9" dy="0.71em">0.020</text></g><g class="tick" opacity="1" transform="translate(662.6923076923076,0)" fill="none"><line stroke="#212529" y2="6" fill="none"></line><line stroke="#212529" y2="-350" stroke-opacity="0.1" fill="none"></line><text fill="#212529" y="9" dy="0.71em">0.022</text></g><g class="tick" opacity="1" transform="translate(718.8461538461539,0)" fill="none"><line stroke="#212529" y2="6" fill="none"></line><line stroke="#212529" y2="-350" stroke-opacity="0.1" fill="none"></line><text fill="#212529" y="9" dy="0.71em">0.024</text></g><g class="tick" opacity="1" transform="translate(775,0)" fill="none"><line stroke="#212529" y2="6" fill="none"></line><line stroke="#212529" y2="-350" stroke-opacity="0.1" fill="none"></line><text fill="#212529" y="9" dy="0.71em">0.026</text></g><text fill="#212529" transform="translate(800,30)" dy="-0.32em" text-anchor="end">Threshold →</text></g><rect aria-label="frame" fill="none" stroke="#212529" x="40" y="20" width="740" height="350"></rect><g aria-label="dot" fill="#212529"><circle cx="45.280769230769224" cy="365" r="3" fill="#2DE3B2"></circle><circle cx="64.09230769230768" cy="365" r="3" fill="#2DE3B2"></circle><circle cx="66.9" cy="365" r="3" fill="#2DE3B2"></circle><circle cx="82.90384615384616" cy="365" r="3" fill="#2DE3B2"></circle><circle cx="88.51923076923077" cy="282.74363" r="3" fill="#F9C129"></circle><circle cx="101.71538461538462" cy="239.39634999999998" r="3" fill="#FC6A19"></circle><circle cx="106.76923076923077" cy="195" r="3" fill="#BA2209"></circle><circle cx="110.13846153846154" cy="324.50481" r="3" fill="#98FA4F"></circle><circle cx="120.52692307692308" cy="354.55758000000003" r="3" fill="#40F392"></circle><circle cx="131.7576923076923" cy="365" r="3" fill="#28D9C1"></circle><circle cx="137.09230769230768" cy="365" r="3" fill="#27B7E6"></circle><circle cx="139.33846153846156" cy="365" r="3" fill="#2DA2F3"></circle><circle cx="139.9" cy="365" r="3" fill="#25C7D6"></circle><circle cx="153.65769230769232" cy="365" r="3" fill="#26D0CC"></circle><circle cx="158.43076923076924" cy="365" r="3" fill="#27D5C6"></circle><circle cx="167.69615384615383" cy="365" r="3" fill="#28D9C0"></circle><circle cx="175.27692307692308" cy="365" r="3" fill="#26D0CC"></circle><circle cx="177.2423076923077" cy="365" r="3" fill="#25C9D4"></circle><circle cx="177.80384615384617" cy="365" r="3" fill="#25CBD2"></circle><circle cx="185.6653846153846" cy="365" r="3" fill="#25CCD1"></circle><circle cx="196.05384615384617" cy="365" r="3" fill="#2ADEB9"></circle><circle cx="196.89615384615385" cy="360.345723" r="3" fill="#34EBA3"></circle><circle cx="197.4576923076923" cy="360.740565" r="3" fill="#33EAA5"></circle><circle cx="198.58076923076925" cy="361.09912899999995" r="3" fill="#33EAA6"></circle><circle cx="199.4230769230769" cy="360.562048" r="3" fill="#34EBA4"></circle><circle cx="202.51153846153846" cy="363.62698140000003" r="3" fill="#2FE5AE"></circle><circle cx="214.8653846153846" cy="365" r="3" fill="#2BDFB7"></circle><circle cx="215.4269230769231" cy="365" r="3" fill="#29DBBD"></circle><circle cx="218.79615384615389" cy="365" r="3" fill="#27D7C3"></circle><circle cx="219.35769230769233" cy="365" r="3" fill="#25C7D7"></circle><circle cx="229.18461538461537" cy="365" r="3" fill="#25C1DD"></circle><circle cx="229.74615384615385" cy="365" r="3" fill="#25C4DA"></circle><circle cx="233.6769230769231" cy="365" r="3" fill="#25CCD2"></circle><circle cx="234.23846153846156" cy="359.244276" r="3" fill="#36EDA0"></circle><circle cx="240.41538461538465" cy="338.09869000000003" r="3" fill="#6DFE68"></circle><circle cx="240.97692307692307" cy="306.52900999999997" r="3" fill="#CBE839"></circle><circle cx="241.53846153846158" cy="312.06557000000004" r="3" fill="#BCEF3F"></circle><circle cx="252.7692307692308" cy="328.17120000000006" r="3" fill="#8CFC55"></circle><circle cx="253.33076923076925" cy="322.86431" r="3" fill="#9DF94D"></circle><circle cx="253.89230769230772" cy="331.24174000000005" r="3" fill="#82FD5B"></circle><circle cx="260.0692307692308" cy="311.14774" r="3" fill="#BFEE3E"></circle><circle cx="260.63076923076926" cy="306.33946" r="3" fill="#CCE839"></circle><circle cx="261.1923076923077" cy="299.36197999999996" r="3" fill="#DCDE33"></circle><circle cx="262.31538461538463" cy="266.26637999999997" r="3" fill="#FFA122"></circle><circle cx="262.8769230769231" cy="233.90671000000003" r="3" fill="#F65F18"></circle><circle cx="271.8615384615385" cy="203.44152000000003" r="3" fill="#C82C0C"></circle><circle cx="272.42307692307696" cy="199.20172" r="3" fill="#C1270A"></circle><circle cx="272.98461538461544" cy="195.90627" r="3" fill="#BC2309"></circle><circle cx="283.9346153846154" cy="190.529" r="3" fill="#B31D07"></circle><circle cx="284.49615384615385" cy="194.55800000000002" r="3" fill="#BA2108"></circle><circle cx="285.0576923076924" cy="200.79649" r="3" fill="#C4290B"></circle><circle cx="285.61923076923074" cy="205.90737" r="3" fill="#CC300D"></circle><circle cx="290.67307692307696" cy="207.13749000000004" r="3" fill="#CE310D"></circle><circle cx="291.2346153846154" cy="207.33299000000002" r="3" fill="#CF320E"></circle><circle cx="291.7961538461538" cy="204.45964999999998" r="3" fill="#CA2E0C"></circle><circle cx="292.6384615384615" cy="201.1132" r="3" fill="#C4290B"></circle><circle cx="295.4461538461539" cy="197.96276" r="3" fill="#BF250A"></circle><circle cx="305.8346153846154" cy="197.41246999999996" r="3" fill="#BE2509"></circle><circle cx="306.3961538461539" cy="198.77434000000002" r="3" fill="#C0260A"></circle><circle cx="306.9576923076923" cy="200.23056000000003" r="3" fill="#C3280B"></circle><circle cx="307.5192307692308" cy="201.67335" r="3" fill="#C52A0B"></circle><circle cx="309.7653846153846" cy="208.01656" r="3" fill="#D0330E"></circle><circle cx="310.3269230769231" cy="213.87476000000004" r="3" fill="#D93C10"></circle><circle cx="310.8884615384615" cy="218.83774" r="3" fill="#E14412"></circle><circle cx="317.06538461538463" cy="223.37827" r="3" fill="#E84C14"></circle><circle cx="321.83846153846156" cy="219.66734000000002" r="3" fill="#E24512"></circle><circle cx="322.4" cy="212.6392" r="3" fill="#D73A10"></circle><circle cx="322.9615384615385" cy="207.52611" r="3" fill="#CF320E"></circle><circle cx="324.9269230769231" cy="202.37800000000004" r="3" fill="#C62B0C"></circle><circle cx="327.7346153846154" cy="196.72788000000003" r="3" fill="#BD2409"></circle><circle cx="328.29615384615386" cy="196.20853" r="3" fill="#BC2309"></circle><circle cx="328.85769230769233" cy="196.97182999999998" r="3" fill="#BD2409"></circle><circle cx="329.4192307692308" cy="197.50001999999998" r="3" fill="#BE250A"></circle><circle cx="329.9807692307692" cy="195.36669" r="3" fill="#BB2209"></circle><circle cx="330.8230769230769" cy="194.69400000000002" r="3" fill="#BA2108"></circle><circle cx="347.95" cy="196.21176" r="3" fill="#BC2309"></circle><circle cx="348.51153846153846" cy="199.04787" r="3" fill="#C1270A"></circle><circle cx="349.0730769230769" cy="200.54301999999998" r="3" fill="#C3280B"></circle><circle cx="349.6346153846154" cy="199.74504000000002" r="3" fill="#C2270A"></circle><circle cx="350.19615384615383" cy="195.48127" r="3" fill="#BB2209"></circle><circle cx="350.7576923076923" cy="190.4644" r="3" fill="#B31D07"></circle><circle cx="351.6" cy="184.4073" r="3" fill="#AA1704"></circle><circle cx="352.1615384615385" cy="177.8589" r="3" fill="#A11202"></circle><circle cx="352.7230769230769" cy="178.8041" r="3" fill="#A31302"></circle><circle cx="353.2846153846154" cy="183.14249999999998" r="3" fill="#A81604"></circle><circle cx="353.8461538461538" cy="188.52129999999997" r="3" fill="#B01B06"></circle><circle cx="354.6884615384616" cy="192.9192" r="3" fill="#B71F08"></circle><circle cx="367.0423076923077" cy="197.97500000000002" r="3" fill="#BF250A"></circle><circle cx="367.6038461538462" cy="200.10459" r="3" fill="#C3280B"></circle><circle cx="368.1653846153846" cy="200.79581" r="3" fill="#C4290B"></circle><circle cx="368.72692307692313" cy="200.79581" r="3" fill="#C4290B"></circle><circle cx="371.5346153846154" cy="200.79581" r="3" fill="#C4290B"></circle><circle cx="372.09615384615387" cy="201.14703" r="3" fill="#C4290B"></circle><circle cx="372.6576923076923" cy="192.64209999999997" r="3" fill="#B71F08"></circle><circle cx="373.21923076923076" cy="182.77020000000002" r="3" fill="#A81604"></circle><circle cx="373.78076923076924" cy="171.18300000000002" r="3" fill="#9A0E00"></circle><circle cx="383.60769230769233" cy="159.9715" r="3" fill="#920C00"></circle><circle cx="384.1692307692308" cy="164.3915" r="3" fill="#940C00"></circle><circle cx="384.7307692307692" cy="171.82389999999998" r="3" fill="#9B0F00"></circle><circle cx="385.29230769230776" cy="181.08720000000002" r="3" fill="#A61403"></circle><circle cx="385.8538461538462" cy="189.63139999999999" r="3" fill="#B21C06"></circle><circle cx="386.41538461538465" cy="195.85322999999997" r="3" fill="#BC2309"></circle><circle cx="386.9769230769231" cy="198.35053" r="3" fill="#C0260A"></circle><circle cx="387.53846153846155" cy="199.55685" r="3" fill="#C2270A"></circle><circle cx="388.38076923076926" cy="199.49939" r="3" fill="#C2270A"></circle><circle cx="392.3115384615385" cy="199.44209999999998" r="3" fill="#C2270A"></circle><circle cx="393.43461538461537" cy="200.69363999999996" r="3" fill="#C4290B"></circle><circle cx="393.9961538461539" cy="199.61907" r="3" fill="#C2270A"></circle><circle cx="394.5576923076923" cy="198.98904999999996" r="3" fill="#C1260A"></circle><circle cx="395.1192307692308" cy="199.56484" r="3" fill="#C2270A"></circle><circle cx="395.6807692307693" cy="199.80012000000002" r="3" fill="#C2280A"></circle><circle cx="396.24230769230775" cy="199.69505999999998" r="3" fill="#C2270A"></circle><circle cx="396.8038461538461" cy="199.72259999999997" r="3" fill="#C2270A"></circle><circle cx="404.6653846153846" cy="199.72259999999997" r="3" fill="#C2270A"></circle><circle cx="405.2269230769231" cy="197.60117" r="3" fill="#BE250A"></circle><circle cx="405.78846153846155" cy="191.75130000000001" r="3" fill="#B51E07"></circle><circle cx="406.35" cy="178.0187" r="3" fill="#A21202"></circle><circle cx="407.1923076923077" cy="164.0549" r="3" fill="#940C00"></circle><circle cx="414.7730769230769" cy="155.13500000000002" r="3" fill="#900C00"></circle><circle cx="415.3346153846154" cy="152.78220000000002" r="3" fill="#900C00"></circle><circle cx="415.8961538461539" cy="165.8399" r="3" fill="#950D00"></circle><circle cx="416.4576923076923" cy="177.0259" r="3" fill="#A01201"></circle><circle cx="417.0192307692307" cy="186.2433" r="3" fill="#AD1905"></circle><circle cx="417.58076923076925" cy="193.0314" r="3" fill="#B71F08"></circle><circle cx="418.4230769230769" cy="197.29449000000002" r="3" fill="#BE2409"></circle><circle cx="424.3192307692307" cy="197.31778000000003" r="3" fill="#BE2409"></circle><circle cx="424.88076923076926" cy="197.59028999999998" r="3" fill="#BE250A"></circle><circle cx="425.4423076923077" cy="198.19888999999998" r="3" fill="#BF260A"></circle><circle cx="426.00384615384615" cy="198.65092" r="3" fill="#C0260A"></circle><circle cx="426.56538461538463" cy="198.91391" r="3" fill="#C1260A"></circle><circle cx="427.12692307692316" cy="199.02644999999998" r="3" fill="#C1270A"></circle><circle cx="437.5153846153846" cy="198.99041000000003" r="3" fill="#C1260A"></circle><circle cx="438.07692307692315" cy="198.80595999999997" r="3" fill="#C0260A"></circle><circle cx="438.6384615384615" cy="198.90456" r="3" fill="#C1260A"></circle><circle cx="439.2" cy="199.05042000000003" r="3" fill="#C1270A"></circle><circle cx="439.76153846153846" cy="198.83061" r="3" fill="#C1260A"></circle><circle cx="440.323076923077" cy="198.61096999999998" r="3" fill="#C0260A"></circle><circle cx="441.1653846153846" cy="198.02634000000003" r="3" fill="#BF250A"></circle><circle cx="443.4115384615385" cy="197.29380999999998" r="3" fill="#BE2409"></circle><circle cx="443.9730769230769" cy="194.3064" r="3" fill="#B92108"></circle><circle cx="444.53461538461534" cy="189.87789999999998" r="3" fill="#B21C06"></circle><circle cx="445.09615384615387" cy="176.5703" r="3" fill="#A01101"></circle><circle cx="445.6576923076923" cy="163.0485" r="3" fill="#930C00"></circle><circle cx="446.21923076923076" cy="155.61270000000002" r="3" fill="#900C00"></circle><circle cx="446.78076923076924" cy="151.1281" r="3" fill="#900C00"></circle><circle cx="447.34230769230777" cy="164.71110000000002" r="3" fill="#950C00"></circle><circle cx="447.9038461538462" cy="176.266" r="3" fill="#A01101"></circle><circle cx="448.4653846153846" cy="186.262" r="3" fill="#AD1905"></circle><circle cx="449.0269230769231" cy="193.0399" r="3" fill="#B71F08"></circle><circle cx="450.71153846153845" cy="198.40459" r="3" fill="#C0260A"></circle><circle cx="456.04615384615386" cy="198.31618999999998" r="3" fill="#C0260A"></circle><circle cx="459.6961538461539" cy="198.04164" r="3" fill="#BF250A"></circle><circle cx="460.25769230769237" cy="197.65353000000002" r="3" fill="#BF250A"></circle><circle cx="460.8192307692308" cy="197.36061999999998" r="3" fill="#BE2409"></circle><circle cx="461.3807692307692" cy="197.39087999999995" r="3" fill="#BE2509"></circle><circle cx="462.2230769230769" cy="197.4208" r="3" fill="#BE2509"></circle><circle cx="462.78461538461545" cy="197.86144" r="3" fill="#BF250A"></circle><circle cx="463.34615384615387" cy="198.41019999999997" r="3" fill="#C0260A"></circle><circle cx="463.90769230769234" cy="196.62163" r="3" fill="#BD2409"></circle><circle cx="464.46923076923076" cy="193.76749999999998" r="3" fill="#B82008"></circle><circle cx="465.03076923076924" cy="189.8133" r="3" fill="#B21C06"></circle><circle cx="465.59230769230777" cy="185.45450000000002" r="3" fill="#AC1805"></circle><circle cx="476.82307692307694" cy="185.2505" r="3" fill="#AB1805"></circle><circle cx="477.3846153846154" cy="186.69039999999998" r="3" fill="#AD1905"></circle><circle cx="477.94615384615383" cy="189.9221" r="3" fill="#B21C06"></circle><circle cx="478.50769230769237" cy="193.9817" r="3" fill="#B92108"></circle><circle cx="479.0692307692308" cy="197.60814" r="3" fill="#BF250A"></circle><circle cx="479.63076923076926" cy="199.41405" r="3" fill="#C1270A"></circle><circle cx="480.7538461538462" cy="200.55186000000003" r="3" fill="#C3280B"></circle><circle cx="481.5961538461538" cy="199.82680999999997" r="3" fill="#C2280A"></circle><circle cx="482.15769230769234" cy="199.28162" r="3" fill="#C1270A"></circle><circle cx="482.71923076923076" cy="198.90014" r="3" fill="#C1260A"></circle><circle cx="483.2807692307693" cy="198.85866000000001" r="3" fill="#C1260A"></circle><circle cx="483.84230769230777" cy="198.74" r="3" fill="#C0260A"></circle><circle cx="484.40384615384625" cy="199.11672000000002" r="3" fill="#C1270A"></circle><circle cx="485.24615384615385" cy="199.24813000000003" r="3" fill="#C1270A"></circle><circle cx="495.0730769230769" cy="190.8928" r="3" fill="#B41D07"></circle><circle cx="496.75769230769237" cy="182.1769" r="3" fill="#A71503"></circle><circle cx="497.6" cy="173.461" r="3" fill="#9C1000"></circle><circle cx="500.9692307692308" cy="164.9372" r="3" fill="#950C00"></circle><circle cx="501.5307692307693" cy="173.2315" r="3" fill="#9C0F00"></circle><circle cx="502.0923076923077" cy="180.9359" r="3" fill="#A51403"></circle><circle cx="502.65384615384613" cy="187.7886" r="3" fill="#AF1A06"></circle><circle cx="503.21538461538466" cy="193.8321" r="3" fill="#B82008"></circle><circle cx="503.77692307692314" cy="199.22789999999998" r="3" fill="#C1270A"></circle><circle cx="504.33846153846156" cy="199.27567000000002" r="3" fill="#C1270A"></circle><circle cx="504.9" cy="199.09819" r="3" fill="#C1270A"></circle><circle cx="505.4615384615385" cy="197.73683000000003" r="3" fill="#BF250A"></circle><circle cx="506.023076923077" cy="195.19414" r="3" fill="#BB2209"></circle><circle cx="507.1461538461539" cy="192.1015" r="3" fill="#B61E07"></circle><circle cx="507.9884615384616" cy="188.68789999999998" r="3" fill="#B01B06"></circle><circle cx="508.55" cy="187.81580000000002" r="3" fill="#AF1A06"></circle><circle cx="509.11153846153843" cy="189.00750000000002" r="3" fill="#B11B06"></circle><circle cx="509.6730769230769" cy="191.14610000000002" r="3" fill="#B41D07"></circle><circle cx="510.2346153846154" cy="194.02929999999998" r="3" fill="#B92108"></circle><circle cx="510.79615384615386" cy="196.65087" r="3" fill="#BD2409"></circle><circle cx="511.63846153846157" cy="197.96922" r="3" fill="#BF250A"></circle><circle cx="515.5692307692308" cy="198.21078999999997" r="3" fill="#BF260A"></circle><circle cx="516.9730769230769" cy="198.04979999999995" r="3" fill="#BF250A"></circle><circle cx="520.0615384615386" cy="197.55306" r="3" fill="#BE250A"></circle><circle cx="520.623076923077" cy="197.74533" r="3" fill="#BF250A"></circle><circle cx="521.1846153846154" cy="198.06799000000004" r="3" fill="#BF250A"></circle><circle cx="521.7461538461538" cy="198.44981000000004" r="3" fill="#C0260A"></circle><circle cx="522.3076923076924" cy="198.88994000000002" r="3" fill="#C1260A"></circle><circle cx="522.8692307692309" cy="199.25866999999997" r="3" fill="#C1270A"></circle><circle cx="523.4307692307692" cy="198.94774" r="3" fill="#C1260A"></circle><circle cx="524.5538461538463" cy="198.46103" r="3" fill="#C0260A"></circle><circle cx="525.676923076923" cy="197.88948999999997" r="3" fill="#BF250A"></circle><circle cx="526.2384615384615" cy="197.45174000000003" r="3" fill="#BE250A"></circle><circle cx="526.8000000000001" cy="197.76896" r="3" fill="#BF250A"></circle><circle cx="527.3615384615385" cy="198.20551999999998" r="3" fill="#BF260A"></circle><circle cx="527.9230769230769" cy="198.63834000000003" r="3" fill="#C0260A"></circle><circle cx="528.4846153846154" cy="198.93465" r="3" fill="#C1260A"></circle><circle cx="529.0461538461539" cy="191.16819999999998" r="3" fill="#B41D07"></circle><circle cx="529.8884615384616" cy="182.1463" r="3" fill="#A71503"></circle><circle cx="530.45" cy="171.88510000000002" r="3" fill="#9B0F00"></circle><circle cx="539.1538461538462" cy="161.4301" r="3" fill="#930C00"></circle><circle cx="539.7153846153846" cy="167.1914" r="3" fill="#960D00"></circle><circle cx="540.276923076923" cy="173.96079999999998" r="3" fill="#9D1000"></circle><circle cx="540.8384615384615" cy="181.7417" r="3" fill="#A61503"></circle><circle cx="541.4" cy="189.3288" r="3" fill="#B11C06"></circle><circle cx="541.9615384615385" cy="196.03666000000004" r="3" fill="#BC2309"></circle><circle cx="542.5230769230769" cy="197.60389" r="3" fill="#BF250A"></circle><circle cx="543.0846153846154" cy="198.78641" r="3" fill="#C0260A"></circle><circle cx="544.2076923076924" cy="199.16788999999997" r="3" fill="#C1270A"></circle><circle cx="546.4538461538461" cy="199.16908" r="3" fill="#C1270A"></circle><circle cx="547.8576923076923" cy="199.08136000000002" r="3" fill="#C1270A"></circle><circle cx="548.4192307692309" cy="198.94926999999998" r="3" fill="#C1260A"></circle><circle cx="548.9807692307693" cy="199.13371999999998" r="3" fill="#C1270A"></circle><circle cx="549.5423076923078" cy="199.10550000000003" r="3" fill="#C1270A"></circle><circle cx="550.1038461538461" cy="199.28264000000001" r="3" fill="#C1270A"></circle><circle cx="550.6653846153847" cy="199.18455" r="3" fill="#C1270A"></circle><circle cx="551.2269230769232" cy="198.81259" r="3" fill="#C0260A"></circle><circle cx="551.7884615384615" cy="198.18903" r="3" fill="#BF250A"></circle><circle cx="552.6307692307693" cy="197.42233" r="3" fill="#BE2509"></circle><circle cx="553.1923076923077" cy="198.06832999999997" r="3" fill="#BF250A"></circle><circle cx="558.526923076923" cy="199.33907999999997" r="3" fill="#C1270A"></circle><circle cx="559.0884615384616" cy="200.55492" r="3" fill="#C3280B"></circle><circle cx="559.65" cy="201.85423" r="3" fill="#C62A0B"></circle><circle cx="560.2115384615386" cy="201.5586" r="3" fill="#C52A0B"></circle><circle cx="560.7730769230769" cy="201.39013" r="3" fill="#C52A0B"></circle><circle cx="561.3346153846154" cy="201.00745999999998" r="3" fill="#C4290B"></circle><circle cx="561.8961538461538" cy="200.43965999999998" r="3" fill="#C3280B"></circle><circle cx="562.7384615384616" cy="199.29233" r="3" fill="#C1270A"></circle><circle cx="563.5807692307692" cy="197.38459" r="3" fill="#BE2509"></circle><circle cx="570.0384615384615" cy="195.10573999999997" r="3" fill="#BA2209"></circle><circle cx="570.6000000000001" cy="192.23239999999998" r="3" fill="#B61F07"></circle><circle cx="571.1615384615385" cy="190.63099999999997" r="3" fill="#B31D07"></circle><circle cx="571.723076923077" cy="191.9196" r="3" fill="#B51E07"></circle><circle cx="572.2846153846154" cy="193.3068" r="3" fill="#B82008"></circle><circle cx="572.8461538461539" cy="195.77231" r="3" fill="#BC2309"></circle><circle cx="573.4076923076924" cy="197.8662" r="3" fill="#BF250A"></circle><circle cx="573.9692307692308" cy="199.48918999999998" r="3" fill="#C2270A"></circle><circle cx="574.5307692307692" cy="200.05512" r="3" fill="#C3280B"></circle><circle cx="575.373076923077" cy="200.28802" r="3" fill="#C3280B"></circle><circle cx="576.776923076923" cy="200.01143000000002" r="3" fill="#C2280B"></circle><circle cx="577.9000000000001" cy="199.61958" r="3" fill="#C2270A"></circle><circle cx="578.4615384615386" cy="199.12368999999998" r="3" fill="#C1270A"></circle><circle cx="579.0230769230768" cy="198.88824" r="3" fill="#C1260A"></circle><circle cx="579.5846153846155" cy="199.04668000000004" r="3" fill="#C1270A"></circle><circle cx="580.1461538461539" cy="199.1565" r="3" fill="#C1270A"></circle><circle cx="580.7076923076922" cy="200.38797999999997" r="3" fill="#C3280B"></circle><circle cx="581.2692307692307" cy="200.79683" r="3" fill="#C4290B"></circle><circle cx="581.8307692307693" cy="201.0894" r="3" fill="#C4290B"></circle><circle cx="582.3923076923078" cy="201.27725000000004" r="3" fill="#C5290B"></circle><circle cx="585.7615384615384" cy="201.41767000000002" r="3" fill="#C52A0B"></circle><circle cx="587.4461538461538" cy="201.09432999999999" r="3" fill="#C4290B"></circle><circle cx="588.85" cy="201.44198" r="3" fill="#C52A0B"></circle><circle cx="591.9384615384615" cy="201.65770999999995" r="3" fill="#C52A0B"></circle><circle cx="592.5" cy="202.97589000000002" r="3" fill="#C72C0C"></circle><circle cx="593.0615384615385" cy="209.59671" r="3" fill="#D2350E"></circle><circle cx="593.6230769230768" cy="204.82073" r="3" fill="#CA2E0D"></circle><circle cx="594.1846153846154" cy="206.56612" r="3" fill="#CD310D"></circle><circle cx="594.7461538461538" cy="206.45884999999998" r="3" fill="#CD310D"></circle><circle cx="595.3076923076923" cy="206.31418" r="3" fill="#CD300D"></circle><circle cx="595.8692307692307" cy="206.60182" r="3" fill="#CD310D"></circle><circle cx="596.4307692307692" cy="207.38416" r="3" fill="#CF320E"></circle><circle cx="596.9923076923078" cy="208.01740999999998" r="3" fill="#D0330E"></circle><circle cx="597.5538461538462" cy="208.57297" r="3" fill="#D1340E"></circle><circle cx="598.1153846153846" cy="207.90623" r="3" fill="#D0330E"></circle><circle cx="598.6769230769231" cy="207.31021" r="3" fill="#CF320E"></circle><circle cx="599.2384615384616" cy="204.85523999999998" r="3" fill="#CA2E0D"></circle><circle cx="599.8" cy="204.36139" r="3" fill="#CA2E0C"></circle><circle cx="600.3615384615384" cy="203.29208999999997" r="3" fill="#C82C0C"></circle><circle cx="600.923076923077" cy="202.16923999999997" r="3" fill="#C62B0B"></circle><circle cx="601.4846153846154" cy="200.48623999999998" r="3" fill="#C3280B"></circle><circle cx="602.0461538461539" cy="198.62984" r="3" fill="#C0260A"></circle><circle cx="602.6076923076923" cy="207.31310000000002" r="3" fill="#CF320E"></circle><circle cx="603.1692307692308" cy="210.16043000000002" r="3" fill="#D3360F"></circle><circle cx="603.7307692307693" cy="219.46844" r="3" fill="#E24512"></circle><circle cx="604.2923076923078" cy="225.06195" r="3" fill="#EA4F14"></circle><circle cx="604.8538461538462" cy="245.28107" r="3" fill="#FF761B"></circle><circle cx="605.4153846153846" cy="260.03231" r="3" fill="#FF9420"></circle><circle cx="605.9769230769232" cy="261.6366" r="3" fill="#FF9721"></circle><circle cx="606.5384615384615" cy="262.81181000000004" r="3" fill="#FF9A21"></circle><circle cx="607.1" cy="263.87414" r="3" fill="#FF9C22"></circle><circle cx="607.9423076923076" cy="264.01439" r="3" fill="#FF9C22"></circle><circle cx="609.0653846153847" cy="265.27307" r="3" fill="#FF9F22"></circle><circle cx="609.9076923076924" cy="266.49384000000003" r="3" fill="#FFA122"></circle><circle cx="610.4692307692308" cy="267.60326" r="3" fill="#FFA323"></circle><circle cx="614.4" cy="268.74514999999997" r="3" fill="#FFA623"></circle><circle cx="614.9615384615385" cy="273.86759" r="3" fill="#FFB025"></circle><circle cx="615.5230769230769" cy="278.91642" r="3" fill="#FEBA27"></circle><circle cx="616.0846153846154" cy="271.66184" r="3" fill="#FFAC24"></circle><circle cx="616.6461538461538" cy="276.97281" r="3" fill="#FFB626"></circle><circle cx="617.2076923076924" cy="276.05039000000005" r="3" fill="#FFB426"></circle><circle cx="617.769230769231" cy="276.25762" r="3" fill="#FFB526"></circle><circle cx="618.3307692307693" cy="276.50191" r="3" fill="#FFB526"></circle><circle cx="618.8923076923078" cy="276.61598000000004" r="3" fill="#FFB626"></circle><circle cx="619.4538461538461" cy="276.66919" r="3" fill="#FFB626"></circle><circle cx="620.0153846153847" cy="276.69197" r="3" fill="#FFB626"></circle><circle cx="620.5769230769231" cy="276.68449" r="3" fill="#FFB626"></circle><circle cx="621.1384615384616" cy="276.56345" r="3" fill="#FFB526"></circle><circle cx="621.9807692307692" cy="275.72416" r="3" fill="#FFB426"></circle><circle cx="627.8769230769232" cy="274.69634" r="3" fill="#FFB226"></circle><circle cx="632.9307692307693" cy="273.10242000000005" r="3" fill="#FFAF25"></circle><circle cx="633.4923076923078" cy="271.14555" r="3" fill="#FFAB24"></circle><circle cx="634.053846153846" cy="287.90108999999995" r="3" fill="#F2CB2C"></circle><circle cx="634.6153846153848" cy="292.47273" r="3" fill="#EAD32E"></circle><circle cx="635.1769230769231" cy="297.60928" r="3" fill="#E0DB32"></circle><circle cx="635.7384615384616" cy="312.27705" r="3" fill="#BCEF3F"></circle><circle cx="636.3" cy="321.12827000000004" r="3" fill="#A2F84A"></circle><circle cx="636.8615384615385" cy="321.85791" r="3" fill="#A0F84B"></circle><circle cx="637.4230769230769" cy="322.73409" r="3" fill="#9DF94C"></circle><circle cx="637.9846153846154" cy="330.72358" r="3" fill="#84FD5A"></circle><circle cx="638.5461538461539" cy="331.58497000000006" r="3" fill="#81FD5B"></circle><circle cx="639.1076923076924" cy="335.45689" r="3" fill="#75FE63"></circle><circle cx="639.6692307692309" cy="336.09269" r="3" fill="#73FE64"></circle><circle cx="640.2307692307692" cy="336.52755" r="3" fill="#72FE65"></circle><circle cx="640.7923076923076" cy="336.66746" r="3" fill="#72FE65"></circle><circle cx="641.3538461538461" cy="336.63516" r="3" fill="#72FE65"></circle><circle cx="641.9153846153846" cy="336.64212999999995" r="3" fill="#72FE65"></circle><circle cx="642.4769230769231" cy="336.65573" r="3" fill="#72FE65"></circle><circle cx="643.0384615384615" cy="336.66916" r="3" fill="#71FE65"></circle><circle cx="643.6" cy="339.62852" r="3" fill="#68FD6C"></circle><circle cx="644.1615384615385" cy="339.7601" r="3" fill="#68FD6C"></circle><circle cx="644.723076923077" cy="339.83880999999997" r="3" fill="#68FD6C"></circle><circle cx="647.25" cy="339.89117" r="3" fill="#68FD6C"></circle><circle cx="648.6538461538461" cy="339.81263" r="3" fill="#68FD6C"></circle><circle cx="649.2153846153846" cy="339.64909" r="3" fill="#68FD6C"></circle><circle cx="649.776923076923" cy="339.41992999999997" r="3" fill="#69FD6B"></circle><circle cx="655.1115384615385" cy="338.73279" r="3" fill="#6BFD6A"></circle><circle cx="655.673076923077" cy="340.85541" r="3" fill="#65FD6E"></circle><circle cx="656.2346153846155" cy="340.43296" r="3" fill="#66FD6D"></circle><circle cx="656.796153846154" cy="337.52511" r="3" fill="#6FFE67"></circle><circle cx="657.3576923076923" cy="343.01883000000004" r="3" fill="#5EFC73"></circle><circle cx="657.9192307692308" cy="343.5001" r="3" fill="#5DFC75"></circle><circle cx="658.4807692307693" cy="343.84027" r="3" fill="#5CFC75"></circle><circle cx="659.0423076923078" cy="344.15188" r="3" fill="#5BFC76"></circle><circle cx="659.6038461538461" cy="344.46706" r="3" fill="#5AFC77"></circle><circle cx="660.1653846153846" cy="344.53744" r="3" fill="#5AFB77"></circle><circle cx="660.7269230769232" cy="342.24363" r="3" fill="#61FC72"></circle><circle cx="661.2884615384615" cy="342.34563" r="3" fill="#60FC72"></circle><circle cx="661.8500000000001" cy="342.44728999999995" r="3" fill="#60FC72"></circle><circle cx="662.4115384615385" cy="342.36501" r="3" fill="#60FC72"></circle><circle cx="662.9730769230769" cy="341.693" r="3" fill="#62FD70"></circle><circle cx="663.5346153846154" cy="330.95189" r="3" fill="#83FD5A"></circle><circle cx="664.0961538461539" cy="320.00321" r="3" fill="#A5F749"></circle><circle cx="664.9384615384615" cy="310.82167999999996" r="3" fill="#C0EE3D"></circle><circle cx="665.5000000000001" cy="305.57752" r="3" fill="#CDE738"></circle><circle cx="666.0615384615386" cy="316.59981" r="3" fill="#AFF444"></circle><circle cx="666.623076923077" cy="326.41782" r="3" fill="#92FB52"></circle><circle cx="667.1846153846154" cy="337.76107" r="3" fill="#6EFE68"></circle><circle cx="667.7461538461538" cy="349.58559" r="3" fill="#4CF884"></circle><circle cx="668.3076923076924" cy="356.86589100000003" r="3" fill="#3BF099"></circle><circle cx="668.8692307692307" cy="357.15217100000007" r="3" fill="#3AF09A"></circle><circle cx="669.4307692307692" cy="358.20734400000003" r="3" fill="#38EE9D"></circle><circle cx="669.9923076923077" cy="358.779564" r="3" fill="#37ED9F"></circle><circle cx="670.5538461538462" cy="358.857713" r="3" fill="#37ED9F"></circle><circle cx="671.1153846153846" cy="358.891237" r="3" fill="#37ED9F"></circle><circle cx="671.6769230769231" cy="358.957877" r="3" fill="#37ED9F"></circle><circle cx="672.5192307692307" cy="359.02443200000005" r="3" fill="#36ED9F"></circle><circle cx="673.0807692307692" cy="359.068751" r="3" fill="#36ED9F"></circle><circle cx="673.6423076923077" cy="359.11305300000004" r="3" fill="#36EDA0"></circle><circle cx="674.2038461538461" cy="359.102003" r="3" fill="#36EDA0"></circle><circle cx="674.7653846153846" cy="359.046719" r="3" fill="#36ED9F"></circle><circle cx="675.3269230769231" cy="357.90083400000003" r="3" fill="#39EF9C"></circle><circle cx="675.8884615384616" cy="357.790266" r="3" fill="#39EF9C"></circle><circle cx="676.45" cy="357.779335" r="3" fill="#39EF9C"></circle><circle cx="677.0115384615384" cy="357.768421" r="3" fill="#39EF9C"></circle><circle cx="677.573076923077" cy="357.807266" r="3" fill="#39EF9C"></circle><circle cx="678.1346153846154" cy="357.89576800000003" r="3" fill="#39EF9C"></circle><circle cx="678.6961538461538" cy="357.929003" r="3" fill="#39EF9C"></circle><circle cx="679.2576923076922" cy="358.733086" r="3" fill="#37ED9E"></circle><circle cx="679.8192307692308" cy="358.336765" r="3" fill="#38EE9D"></circle><circle cx="680.6615384615385" cy="357.25782599999997" r="3" fill="#3AF09A"></circle><circle cx="681.223076923077" cy="356.174467" r="3" fill="#3CF197"></circle><circle cx="681.7846153846153" cy="357.389899" r="3" fill="#3AEF9A"></circle><circle cx="682.3461538461539" cy="357.81172" r="3" fill="#39EF9C"></circle><circle cx="682.9076923076924" cy="358.604566" r="3" fill="#37EE9E"></circle><circle cx="683.4692307692308" cy="359.5311" r="3" fill="#36ECA1"></circle><circle cx="684.0307692307692" cy="361.122997" r="3" fill="#33EAA6"></circle><circle cx="684.5923076923077" cy="361.783923" r="3" fill="#32E9A8"></circle><circle cx="685.1538461538462" cy="362.378311" r="3" fill="#31E7AA"></circle><circle cx="685.7153846153847" cy="362.46268200000003" r="3" fill="#30E7AA"></circle><circle cx="686.2769230769231" cy="362.483745" r="3" fill="#30E7AA"></circle><circle cx="686.8384615384616" cy="362.504808" r="3" fill="#30E7AA"></circle><circle cx="687.4000000000001" cy="362.49955500000004" r="3" fill="#30E7AA"></circle><circle cx="691.05" cy="362.42062400000003" r="3" fill="#30E7AA"></circle><circle cx="691.8923076923078" cy="362.21013" r="3" fill="#31E8A9"></circle><circle cx="694.1384615384617" cy="361.894389" r="3" fill="#31E8A8"></circle><circle cx="694.7000000000002" cy="361.547283" r="3" fill="#32E9A7"></circle><circle cx="695.2615384615384" cy="360.07115600000003" r="3" fill="#35EBA3"></circle><circle cx="695.8230769230769" cy="359.65435" r="3" fill="#35ECA1"></circle><circle cx="696.3846153846154" cy="358.632769" r="3" fill="#37EE9E"></circle><circle cx="696.946153846154" cy="356.897256" r="3" fill="#3BF099"></circle><circle cx="697.5076923076923" cy="356.55995900000005" r="3" fill="#3BF098"></circle><circle cx="698.0692307692308" cy="358.037378" r="3" fill="#38EE9C"></circle><circle cx="698.6307692307693" cy="360.01067" r="3" fill="#35EBA2"></circle><circle cx="699.1923076923077" cy="361.36312200000003" r="3" fill="#32E9A7"></circle><circle cx="699.7538461538462" cy="362.792244" r="3" fill="#30E7AB"></circle><circle cx="700.3153846153846" cy="364.417087" r="3" fill="#2EE4B0"></circle><circle cx="700.876923076923" cy="365" r="3" fill="#2CE2B3"></circle><circle cx="701.4384615384615" cy="365" r="3" fill="#2CE1B4"></circle><circle cx="702" cy="365" r="3" fill="#2CE1B5"></circle><circle cx="702.5615384615385" cy="365" r="3" fill="#2CE1B5"></circle><circle cx="703.1230769230768" cy="365" r="3" fill="#2CE1B5"></circle><circle cx="703.6846153846154" cy="365" r="3" fill="#2CE1B4"></circle><circle cx="704.2461538461538" cy="365" r="3" fill="#2CE1B4"></circle><circle cx="704.8076923076924" cy="365" r="3" fill="#2CE1B4"></circle><circle cx="705.3692307692307" cy="365" r="3" fill="#2BE1B5"></circle><circle cx="705.9307692307692" cy="365" r="3" fill="#2BE1B5"></circle><circle cx="706.4923076923078" cy="365" r="3" fill="#2CE2B4"></circle><circle cx="707.0538461538462" cy="365" r="3" fill="#2CE2B4"></circle><circle cx="707.6153846153846" cy="365" r="3" fill="#2CE1B5"></circle><circle cx="708.176923076923" cy="365" r="3" fill="#2CE1B5"></circle><circle cx="708.7384615384616" cy="365" r="3" fill="#2BE0B6"></circle><circle cx="709.3" cy="365" r="3" fill="#2BDFB7"></circle><circle cx="709.8615384615384" cy="365" r="3" fill="#2BDFB8"></circle><circle cx="710.4230769230769" cy="365" r="3" fill="#2ADFB8"></circle><circle cx="711.546153846154" cy="365" r="3" fill="#2BDFB8"></circle><circle cx="712.95" cy="365" r="3" fill="#2BDFB7"></circle><circle cx="713.7923076923078" cy="365" r="3" fill="#2BE0B7"></circle><circle cx="714.3538461538462" cy="365" r="3" fill="#2BE0B6"></circle><circle cx="714.9153846153846" cy="365" r="3" fill="#2BDFB7"></circle><circle cx="715.4769230769231" cy="365" r="3" fill="#2BDFB8"></circle><circle cx="716.0384615384615" cy="365" r="3" fill="#2ADFB8"></circle><circle cx="716.6" cy="365" r="3" fill="#2ADFB8"></circle><circle cx="717.1615384615384" cy="365" r="3" fill="#2ADFB8"></circle><circle cx="717.723076923077" cy="365" r="3" fill="#2ADEB9"></circle><circle cx="718.2846153846153" cy="365" r="3" fill="#2ADEB9"></circle><circle cx="718.8461538461539" cy="365" r="3" fill="#2ADFB8"></circle><circle cx="719.4076923076924" cy="365" r="3" fill="#2BDFB8"></circle><circle cx="725.3038461538463" cy="365" r="3" fill="#2BDFB7"></circle><circle cx="725.8653846153846" cy="365" r="3" fill="#2BE0B6"></circle><circle cx="726.426923076923" cy="365" r="3" fill="#2BE1B5"></circle><circle cx="726.9884615384615" cy="365" r="3" fill="#2BE1B5"></circle><circle cx="727.55" cy="350.470236" r="3" fill="#4AF787"></circle><circle cx="728.1115384615385" cy="334.74713999999994" r="3" fill="#77FE61"></circle><circle cx="728.673076923077" cy="319.06906000000004" r="3" fill="#A8F647"></circle><circle cx="729.2346153846154" cy="303.2186" r="3" fill="#D3E436"></circle><circle cx="729.7961538461539" cy="320.27997" r="3" fill="#A4F749"></circle><circle cx="730.3576923076923" cy="334.10063" r="3" fill="#79FE60"></circle><circle cx="730.9192307692308" cy="346.17437" r="3" fill="#55FB7B"></circle><circle cx="731.4807692307692" cy="356.71617200000003" r="3" fill="#3BF098"></circle><circle cx="732.0423076923076" cy="365" r="3" fill="#2BE0B6"></circle><circle cx="732.6038461538462" cy="365" r="3" fill="#2ADFB8"></circle><circle cx="733.1653846153846" cy="365" r="3" fill="#2ADEBA"></circle><circle cx="733.7269230769231" cy="365" r="3" fill="#29DDBB"></circle><circle cx="734.2884615384615" cy="365" r="3" fill="#29DCBC"></circle><circle cx="734.85" cy="365" r="3" fill="#29DCBD"></circle><circle cx="735.4115384615385" cy="365" r="3" fill="#29DCBD"></circle><circle cx="735.973076923077" cy="365" r="3" fill="#29DBBE"></circle><circle cx="736.5346153846154" cy="365" r="3" fill="#29DBBE"></circle><circle cx="737.0961538461538" cy="365" r="3" fill="#28DBBE"></circle><circle cx="737.6576923076924" cy="365" r="3" fill="#28DABF"></circle><circle cx="738.2192307692308" cy="365" r="3" fill="#28DABF"></circle><circle cx="738.7807692307692" cy="365" r="3" fill="#28DABF"></circle><circle cx="739.623076923077" cy="365" r="3" fill="#3198F7"></circle><circle cx="741.026923076923" cy="365" r="3" fill="#4B51D3"></circle><circle cx="741.5884615384616" cy="365" r="3" fill="#23171B"></circle><circle cx="742.9923076923078" cy="365" r="3" fill="#2DE3B2"></circle></g></svg>